<?xml version="1.0" encoding="us-ascii" standalone="no"?><svg xmlns="http://www.w3.org/2000/svg" xmlns:xlink="http://www.w3.org/1999/xlink" contentStyleType="text/css" height="820px" preserveAspectRatio="none" style="width:1630px;height:820px;background:#FFFFFF;" version="1.1" viewBox="0 0 1630 820" width="1630px" zoomAndPan="magnify"><defs/><g><text fill="#000000" font-family="Verdana" font-size="22" font-weight="bold" lengthAdjust="spacing" textLength="501" x="560.451" y="37.1182">Deployment Diagram &#8212; HockeyScrapper</text><!--cluster device--><g id="cluster_device"><polygon fill="#F5EEF8" points="697,68.7373,707,58.7373,914,58.7373,914,281.7373,904,291.7373,697,291.7373,697,68.7373" style="stroke:#8E44AD;stroke-width:1.0;"/><line style="stroke:#8E44AD;stroke-width:1.0;" x1="904" x2="914" y1="68.7373" y2="58.7373"/><line style="stroke:#8E44AD;stroke-width:1.0;" x1="697" x2="904" y1="68.7373" y2="68.7373"/><line style="stroke:#8E44AD;stroke-width:1.0;" x1="904" x2="904" y1="68.7373" y2="291.7373"/><text fill="#000000" font-family="Verdana" font-size="14" font-weight="bold" lengthAdjust="spacing" textLength="90" x="756.5" y="85.8125">User Device</text></g><!--cluster render--><g id="cluster_render"><polygon fill="#F5EEF8" points="21,482.7373,31,472.7373,447,472.7373,447,793.2373,437,803.2373,21,803.2373,21,482.7373" style="stroke:#8E44AD;stroke-width:1.0;"/><line style="stroke:#8E44AD;stroke-width:1.0;" x1="437" x2="447" y1="482.7373" y2="472.7373"/><line style="stroke:#8E44AD;stroke-width:1.0;" x1="21" x2="437" y1="482.7373" y2="482.7373"/><line style="stroke:#8E44AD;stroke-width:1.0;" x1="437" x2="437" y1="482.7373" y2="803.2373"/><text fill="#000000" font-family="Verdana" font-size="14" font-weight="bold" lengthAdjust="spacing" textLength="150" x="155" y="499.8125">Render (Frankfurt)</text></g><!--cluster ext--><g id="cluster_ext"><path d="M834.8161,692.6678 C847.8661,662.0479 871.6656,665.3112 889.0949,688.2277 C909.0575,660.6106 931.7203,661.9098 947.2601,692.6371 C960.1972,666.4817 985.7593,664.1224 1003.8246,686.6828 C1017.3689,663.4528 1044.4023,658.5147 1059.7629,684.6235 C1078.1653,658.3114 1094.9695,657.9407 1112.4415,685.5328 C1127.7412,656.0074 1154.0414,652.3659 1172.6348,682.1925 C1186.3304,659.7813 1201.597,660.3221 1219.019,677.8665 C1242.1214,649.4389 1264.3291,654.8485 1281.266,684.4771 C1295.5954,661.2078 1317.5662,658.2981 1334.8006,681.1018 C1352.8159,654.901 1377.67,662.6688 1389.4961,687.7083 C1405.2668,657.0248 1429.7722,655.8597 1448.0999,685.2123 C1461.0981,663.8543 1486.207,660.4922 1498.9022,685.5439 C1518.5156,662.4862 1536.5249,657.6553 1555.3518,686.4008 C1574.2092,666.8956 1593.2059,661.106 1607.6079,691.1039 C1617.3554,695.3234 1616.6908,702.7878 1609.4519,708.7794 C1621.7229,716.1014 1623.9019,723.2595 1611.8104,732.958 C1620.0676,740.9413 1618.954,747.4636 1608.5619,752.3175 C1622.6298,758.897 1621.7418,767.9733 1611.2383,777.1961 C1589.2989,804.0261 1571.7114,801.4051 1552.9373,773.8057 C1537.2177,800.9416 1512.769,801.9111 1497.4086,773.4468 C1483.304,799.8403 1456.3908,799.4853 1441.2399,774.5928 C1422.3249,797.1248 1405.989,797.6326 1386.7816,774.9449 C1370.3139,802.1326 1351.9624,803.2383 1330.1341,781.1013 C1313.313,804.14 1288.1248,808.8367 1274.4174,777.888 C1258.3693,803.376 1233.3431,802.0265 1219.8146,775.2553 C1203.2112,800.6 1188.5793,798.2354 1171.2138,776.0343 C1156.1576,799.3474 1127.7912,800.6998 1114.2827,774.2632 C1094.7883,806.3645 1073.504,803.6108 1054.005,774.2677 C1039.5948,796.9538 1018.6105,802.7224 1002.074,776.5267 C984.1344,802.4663 962.0309,795.6954 948.1532,772.1049 C931.1484,798.3408 909.8353,794.8515 893.0709,771.836 C872.566,805.4552 853.9217,802.5568 832.3199,772.8888 C820.7244,765.8036 820.0085,758.8144 830.5336,750.0026 C821.1956,748.3804 818.7236,740.3854 824.2192,733.1915 C814.2644,725.4882 814.7647,714.0297 827.95,710.0582 C822.5286,701.0746 823.0668,694.872 834.8161,692.6678 " fill="#FEF9E7" style="stroke:#F1C40F;stroke-width:1.0;"/><text fill="#000000" font-family="Verdana" font-size="14" font-weight="bold" lengthAdjust="spacing" textLength="133" x="1151.5" y="706.8125">External Services</text></g><!--entity user--><g id="elem_user"><ellipse cx="729" cy="108.7373" fill="#FADBD8" rx="8" ry="8" style="stroke:#E74C3C;stroke-width:1.0;"/><path d="M729,116.7373 L729,143.7373 M716,124.7373 L742,124.7373 M729,143.7373 L716,158.7373 M729,143.7373 L742,158.7373 " fill="none" style="stroke:#E74C3C;stroke-width:1.0;"/><text fill="#000000" font-family="Verdana" font-size="14" lengthAdjust="spacing" textLength="32" x="713" y="174.8125">User</text></g><!--entity browser--><g id="elem_browser"><rect fill="#D6EAF8" height="37.0146" rx="2.5" ry="2.5" style="stroke:#2E86C1;stroke-width:1.0;" width="78" x="713" y="238.7373"/><text fill="#000000" font-family="Verdana" font-size="14" lengthAdjust="spacing" textLength="58" x="723" y="262.8125">Browser</text></g><!--entity tg_app--><g id="elem_tg_app"><rect fill="#D6EAF8" height="37.0146" rx="2.5" ry="2.5" style="stroke:#2E86C1;stroke-width:1.0;" width="117" x="780.5" y="120.2373"/><text fill="#000000" font-family="Verdana" font-size="14" lengthAdjust="spacing" textLength="97" x="790.5" y="144.3125">Telegram App</text></g><!--entity webservice--><g id="elem_webservice"><rect fill="#D6EAF8" height="88.0586" rx="2.5" ry="2.5" style="stroke:#2E86C1;stroke-width:1.0;" width="162" x="45" y="521.7373"/><text fill="#000000" font-family="Verdana" font-size="14" font-style="italic" lengthAdjust="spacing" textLength="66" x="93" y="545.8125">&#171;docker&#187;</text><text fill="#000000" font-family="Verdana" font-size="14" lengthAdjust="spacing" textLength="142" x="55" y="562.8271">Render Web Service</text><text fill="#000000" font-family="Verdana" font-size="14" lengthAdjust="spacing" textLength="137" x="55" y="579.8418">hockeyscrapper-api</text><text fill="#000000" font-family="Verdana" font-size="14" lengthAdjust="spacing" textLength="42" x="55" y="596.8564">:8000</text></g><!--entity worker--><g id="elem_worker"><rect fill="#D6EAF8" height="88.0586" rx="2.5" ry="2.5" style="stroke:#2E86C1;stroke-width:1.0;" width="161" x="242.5" y="521.7373"/><text fill="#000000" font-family="Verdana" font-size="14" font-style="italic" lengthAdjust="spacing" textLength="66" x="290" y="545.8125">&#171;docker&#187;</text><text fill="#000000" font-family="Verdana" font-size="14" lengthAdjust="spacing" textLength="107" x="252.5" y="562.8271">Render Worker</text><text fill="#000000" font-family="Verdana" font-size="14" lengthAdjust="spacing" textLength="141" x="252.5" y="579.8418">hockeyscrapper-bot</text><text fill="#000000" font-family="Verdana" font-size="14" lengthAdjust="spacing" textLength="71" x="252.5" y="596.8564">(no HTTP)</text></g><!--entity pg--><g id="elem_pg"><path d="M87,709.2373 C87,699.2373 172,699.2373 172,699.2373 C172,699.2373 257,699.2373 257,709.2373 L257,769.2813 C257,779.2813 172,779.2813 172,779.2813 C172,779.2813 87,779.2813 87,769.2813 L87,709.2373 " fill="#E8F8F5" style="stroke:#1ABC9C;stroke-width:1.0;"/><path d="M87,709.2373 C87,719.2373 172,719.2373 172,719.2373 C172,719.2373 257,719.2373 257,709.2373 " fill="none" style="stroke:#1ABC9C;stroke-width:1.0;"/><text fill="#000000" font-family="Verdana" font-size="14" font-style="italic" lengthAdjust="spacing" textLength="99" x="122.5" y="737.3125">&#171;PostgreSQL&#187;</text><text fill="#000000" font-family="Verdana" font-size="14" lengthAdjust="spacing" textLength="150" x="97" y="754.3271">Managed PostgreSQL</text><text fill="#000000" font-family="Verdana" font-size="14" lengthAdjust="spacing" textLength="135" x="97" y="771.3418">hockeyscrapper-db</text></g><!--entity tg_api--><g id="elem_tg_api"><path d="M1453.8621,725.5401 C1455.5169,720.1188 1460.1672,718.3369 1464.1037,723.2868 C1467.4566,717.3437 1473.0767,717.2888 1476.6815,723.0153 C1479.2851,718.4446 1483.2675,718.5122 1486.2579,722.5871 C1488.5115,715.2219 1494.8192,715.1767 1498.9815,720.7033 C1502.2313,715.3185 1507.2302,714.9033 1510.8224,720.3282 C1514.2434,715.1204 1517.4341,715.6609 1520.6066,720.5686 C1524.8115,716.0735 1528.8275,715.5502 1532.3481,721.3492 C1536.2262,716.8402 1539.548,717.2687 1542.7303,722.1211 C1546.7301,716.3506 1550.5047,716.6785 1554.4858,722.1407 C1557.8106,716.4368 1562.7736,716.5449 1566.2045,722.0295 C1570.1802,717.4015 1574.3278,716.8249 1577.2737,723.0772 C1582.0719,716.8187 1586.9393,718.6321 1589.8719,724.9466 C1598.3362,729.4249 1598.1494,734.3609 1591.3276,740.2896 C1596.9791,746.1972 1596.9131,751.3019 1589.5602,755.7201 C1586.3549,761.365 1581.9094,761.3857 1578.3444,756.0887 C1575.7264,762.0921 1571.1422,762.2486 1566.9401,757.8206 C1563.7207,762.9715 1560.2046,764.1441 1556.0165,758.8321 C1552.6081,764.7006 1547.5,766.3732 1542.6805,760.4245 C1539.4979,766.1091 1535.6072,765.8635 1531.9685,760.8826 C1529.2653,766.3298 1523.4648,767.62 1520.2259,761.4228 C1516.6725,766.4722 1512.4732,765.8464 1510.0766,760.3133 C1506.844,765.4166 1502.1633,766.1891 1498.3337,760.9941 C1494.0068,765.2947 1488.0771,764.1311 1486.4841,757.914 C1483.1107,763.3283 1479.6611,763.0927 1475.5464,758.7445 C1470.8047,763.4655 1466.8458,762.363 1464.5508,756.2591 C1460.5289,761.7524 1455.6427,762.1274 1452.2494,755.6151 C1442.6405,754.7403 1438.0911,750.3364 1442.894,740.5261 C1438.3993,730.4236 1442.9319,724.3534 1453.8621,725.5401 " fill="#FEF9E7" style="stroke:#F1C40F;stroke-width:1.0;"/><text fill="#000000" font-family="Verdana" font-size="14" lengthAdjust="spacing" textLength="122" x="1459" y="744.8125">Telegram Bot API</text></g><!--entity khl--><g id="elem_khl"><path d="M1160.1042,725.026 C1162.2939,715.5271 1170.2839,713.6334 1176.3036,721.4409 C1180.653,712.2638 1187.5592,711.5383 1193.1174,720.3084 C1197.7261,715.1734 1204.192,714.2321 1206.9095,722.2861 C1213.9518,714.5938 1219.8135,716.8076 1223.3222,725.7686 C1232.4194,725.5874 1236.7748,730.4157 1232.754,739.3467 C1236.2408,748.323 1234.3438,755.7476 1222.8426,755.5634 C1220.5839,763.2809 1213.4423,764.9081 1207.7656,759.485 C1204.6606,767.9917 1198.1658,768.3139 1192.1046,762.783 C1186.3229,769.613 1179.332,766.2526 1177.1901,758.9435 C1171.0844,765.0366 1163.8842,763.3265 1161.0404,755.2308 C1151.333,755.4995 1148.0791,749.3461 1152.7802,741.1577 C1148.3554,733.081 1148.9537,726.0312 1160.1042,725.026 " fill="#FEF9E7" style="stroke:#F1C40F;stroke-width:1.0;"/><text fill="#000000" font-family="Verdana" font-size="14" lengthAdjust="spacing" textLength="48" x="1167" y="744.8125">KHL.ru</text></g><!--entity club--><g id="elem_club"><path d="M1274.0781,724.3028 C1277.5307,718.9514 1281.5848,718.1737 1286.0023,723.1936 C1290.6539,717.039 1295.3661,717.7461 1299.7718,723.4785 C1302.0174,717.7001 1307.9374,715.6731 1312.4495,720.8575 C1316.4966,713.9371 1321.1455,714.9181 1325.9215,720.0422 C1328.6577,713.8704 1333.7379,713.1996 1337.508,719.0454 C1342.767,713.2725 1346.7323,713.6361 1350.7014,720.4027 C1354.4084,715.5522 1360.0885,714.8676 1362.6283,721.6041 C1366.8446,714.7717 1373.1874,714.3447 1377.1074,721.9022 C1381.6284,717.8316 1386.7039,718.1345 1388.8891,724.5313 C1394.5267,717.4212 1398.807,718.357 1403.1001,725.8406 C1411.9259,726.279 1415.0786,733.6387 1411.0094,740.8653 C1414.9283,749.5024 1412.1533,756.2638 1401.8534,756.6567 C1397.549,761.6188 1393.2502,762.2073 1389.3004,756.249 C1384.9655,763.7351 1379.5624,762.7695 1375.4229,756.058 C1372.7807,762.4009 1368.012,763.0705 1363.964,757.3988 C1360.7207,764.667 1354.2114,763.6836 1350.7747,757.5897 C1347.1371,763.9876 1342.3306,763.0766 1338.6292,757.6553 C1334.2536,764.8701 1328.3805,763.6661 1324.5087,757.1377 C1321.1795,762.1841 1315.3996,763.4429 1312.1688,757.0318 C1307.3694,762.1945 1303.3855,763.2779 1299.1016,756.4692 C1295.4297,762.5733 1289.6003,762.2171 1286.3179,756.063 C1282.2169,761.0289 1277.1126,761.1954 1273.6275,755.3408 C1264.9054,755.053 1262.2283,748.113 1266.8322,741.3519 C1261.337,732.3883 1263.7376,726.5362 1274.0781,724.3028 " fill="#FEF9E7" style="stroke:#F1C40F;stroke-width:1.0;"/><text fill="#000000" font-family="Verdana" font-size="14" lengthAdjust="spacing" textLength="114" x="1280" y="744.8125">ticket-hockey.ru</text></g><!--entity yandex--><g id="elem_yandex"><path d="M849.9,724.268 C852.23,720.0641 856.5293,718.6714 859.4965,723.5983 C863.9853,717.9113 868.5069,716.5199 872.8971,723.7012 C875.232,717.3964 878.7303,715.6815 884.0642,720.7589 C888.2989,716.2976 891.6948,716.508 895.1932,721.6154 C896.649,715.7663 901.7895,714.6903 905.6415,719.1981 C909.8644,713.7211 913.7924,713.8566 916.7854,720.3437 C920.0779,715.1228 925.8867,715.4054 928.4546,721.1171 C933.2171,715.7713 937.0509,716.3906 939.6807,723.1027 C944.0581,718.6915 948.1402,717.745 951.4834,724.2236 C954.5859,718.1846 959.721,718.1393 963.2706,723.7721 C972.7429,726.9317 973.1233,734.8576 967.1284,741.4018 C972.0735,747.2796 970.1333,752.8097 962.9262,754.906 C960.1974,761.2702 955.6242,761.2417 951.0534,756.9605 C948.2457,762.0566 943.7529,762.9721 940.2633,757.668 C938.4251,763.6185 933.1805,763.4728 929.713,759.3795 C927.6829,766.0402 922.642,765.7612 918.4808,761.5893 C914.5311,767.2043 910.5953,769.1756 905.6569,762.632 C900.8768,767.7484 896.7674,767.6391 893.9427,760.7275 C889.3555,765.6755 885.748,765.11 883.285,758.7292 C879.5401,764.3888 874.7393,763.4944 871.3692,758.3171 C868.0226,763.057 863.3446,763.407 860.379,757.9081 C855.4057,761.9549 851.1871,761.2895 848.5882,755.1575 C840.8228,752.6074 838.0422,746.2807 845.1707,740.3038 C838.3081,733.1977 840.8251,726.6737 849.9,724.268 " fill="#FEF9E7" style="stroke:#F1C40F;stroke-width:1.0;"/><text fill="#000000" font-family="Verdana" font-size="14" lengthAdjust="spacing" textLength="100" x="855" y="744.8125">Yandex Afisha</text></g><!--entity gmail--><g id="elem_gmail"><path d="M1015.4692,724.6992 C1017.8603,718.4467 1021.2775,717.8984 1025.9837,722.4451 C1029.2121,717.266 1035.0267,716.1333 1037.9693,722.7358 C1041.2626,716.1202 1046.8941,714.758 1051.2397,721.7063 C1053.8916,714.7492 1057.3912,713.3931 1063.024,718.8842 C1066.9082,714.2229 1070.7843,715.4325 1072.9111,720.6441 C1077.3864,715.9962 1082.889,715.7455 1085.7678,722.4519 C1089.2123,716.4328 1094.3829,716.2624 1097.5341,722.7282 C1101.6141,717.1216 1106.5242,719.0068 1108.9487,724.4399 C1117.5577,727.7865 1119.5783,732.8276 1112.8789,740.0327 C1120.1992,745.1056 1118.3988,752.3926 1110.4505,754.9859 C1108.465,761.2425 1102.5388,762.6937 1098.2383,757.4427 C1093.9418,764.1669 1089.4154,763.6046 1084.9605,757.608 C1081.8161,763.6469 1077.9434,762.6634 1073.929,758.5537 C1071.1457,764.2424 1066.8918,764.9886 1062.6563,760.1017 C1058.7334,765.5998 1053.0764,767.2732 1049.1951,760.0577 C1045.5522,764.5155 1040.6717,763.6919 1038.9175,758.1219 C1034.088,764.3812 1028.8335,762.3555 1025.6815,756.3164 C1021.7063,760.5002 1018.302,761.1488 1015.3734,755.2467 C1007.8436,753.6312 1005.447,747.4137 1009.9332,741.1582 C1003.4014,733.7283 1007.2532,727.1687 1015.4692,724.6992 " fill="#FEF9E7" style="stroke:#F1C40F;stroke-width:1.0;"/><text fill="#000000" font-family="Verdana" font-size="14" lengthAdjust="spacing" textLength="81" x="1020.5" y="744.8125">Gmail SMTP</text></g><!--entity internet--><g id="elem_internet"><path d="M764.3172,364.3875 C766.4647,357.878 770.0934,356.433 775.4377,361.2484 C778.9366,355.4149 782.9036,356.015 786.5569,361.091 C788.5944,355.1311 793.0165,352.7225 798.0895,357.9664 C802.4851,353.7154 806.9693,354.4357 809.8774,359.7916 C814.7217,354.9962 821.2243,355.794 823.3596,362.8687 C826.6582,356.7693 832.3389,356.7463 835.6192,362.887 C845.567,363.1682 848.8959,371.4616 843.9054,379.2893 C848.4729,388.9661 845.9539,394.5426 834.8124,395.2948 C832.0049,401.5326 828.0568,401.9392 823.2646,397.4268 C821.5207,404.5075 817.8833,405.4087 811.8727,402.1093 C810.064,409.8827 803.9016,410.4837 799.0079,405.1335 C793.5557,409.339 789.702,407.7527 787.5095,401.5368 C782.4279,406.5337 777.7507,404.6159 775.5536,398.4479 C770.3894,404.4589 764.8847,401.2691 762.9897,395.081 C754.6721,392.6736 753.1439,387.4496 757.1847,380.216 C752.0133,373.1162 754.4918,364.7296 764.3172,364.3875 " fill="#FEF9E7" style="stroke:#F1C40F;stroke-width:1.0;"/><text fill="#000000" font-family="Verdana" font-size="14" lengthAdjust="spacing" textLength="57" x="769.5" y="383.8125">Internet</text></g><g id="elem_GMN29"><path d="M471.5,686.7373 L471.5,791.5332 L804.5,791.5332 L804.5,696.7373 L794.5,686.7373 L471.5,686.7373 " fill="#FFFFFF" style="stroke:#000000;stroke-width:1.0;"/><path d="M794.5,686.7373 L794.5,696.7373 L804.5,696.7373 L794.5,686.7373 " fill="#FFFFFF" style="stroke:#000000;stroke-width:1.0;"/><text fill="#000000" font-family="Verdana" font-size="13" font-weight="bold" lengthAdjust="spacing" textLength="201" x="477.5" y="704.8071">Local development options:</text><text fill="#000000" font-family="Verdana" font-size="13" lengthAdjust="spacing" textLength="291" x="477.5" y="720.6064">&#8226; docker compose up (api + bot containers)</text><text fill="#000000" font-family="Verdana" font-size="13" lengthAdjust="spacing" textLength="259" x="477.5" y="736.4058">&#8226; python -m main --all (single process)</text><text fill="#000000" font-family="Verdana" font-size="13" lengthAdjust="spacing" textLength="256" x="477.5" y="752.2051">&#8226; python -m main --api-only (api only)</text><text fill="#000000" font-family="Verdana" font-size="13" lengthAdjust="spacing" textLength="312" x="477.5" y="768.0044">&#8226; python -m main --bot-only (bot+parser only)</text><text fill="#000000" font-family="Verdana" font-size="13" lengthAdjust="spacing" textLength="234" x="477.5" y="783.8037">SQLite replaces PostgreSQL in dev.</text></g><!--link user to browser--><g id="link_user_browser"><path d="M736.53,177.8873 C740.57,198.3273 744.1767,216.6412 747.3467,232.6812 " fill="none" id="user-to-browser" style="stroke:#000000;stroke-width:1.0;"/><polygon fill="#000000" points="748.51,238.5673,750.6892,228.9626,747.5406,233.6622,742.841,230.5136,748.51,238.5673" style="stroke:#000000;stroke-width:1.0;"/></g><!--link browser to internet--><g id="link_browser_internet"><path d="M756.47,276.0173 C760.09,289.5673 765.63,308.5873 772,324.7373 C775.96,334.7673 778.3723,340.1432 783.0323,349.2732 " fill="none" id="browser-to-internet" style="stroke:#000000;stroke-width:1.0;"/><polygon fill="#000000" points="785.76,354.6173,785.2312,344.7827,783.4869,350.1639,778.1057,348.4196,785.76,354.6173" style="stroke:#000000;stroke-width:1.0;"/><text fill="#000000" font-family="Verdana" font-size="13" lengthAdjust="spacing" textLength="44" x="773" y="321.8071">HTTPS</text></g><!--link internet to webservice--><g id="link_internet_webservice"><path d="M754.46,381.3073 C637.2,387.4873 317.41,408.4373 225,456.7373 C196.37,471.6973 175.4035,493.615 157.8935,516.725 " fill="none" id="internet-to-webservice" style="stroke:#000000;stroke-width:1.0;"/><polygon fill="#000000" points="154.27,521.5073,162.8934,516.7495,157.2896,517.522,156.517,511.9182,154.27,521.5073" style="stroke:#000000;stroke-width:1.0;"/><text fill="#000000" font-family="Verdana" font-size="13" lengthAdjust="spacing" textLength="117" x="291" y="445.8071">HTTPS (port 443)</text></g><!--link tg_app to internet--><g id="link_tg_app_internet"><path d="M839.33,157.4273 C839.53,190.7573 837.93,264.8973 822,324.7373 C819.29,334.9073 817.3982,340.1735 812.9982,349.2035 " fill="none" id="tg_app-to-internet" style="stroke:#000000;stroke-width:1.0;"/><polygon fill="#000000" points="810.37,354.5973,817.9081,348.2588,812.5602,350.1025,810.7164,344.7545,810.37,354.5973" style="stroke:#000000;stroke-width:1.0;"/></g><!--link internet to tg_api--><g id="link_internet_tg_api"><path d="M841.55,388.0273 C952.33,412.0973 1249.97,487.6573 1447,639.7373 C1473.79,660.4173 1492.4847,688.197 1505.0647,710.227 " fill="none" id="internet-to-tg_api" style="stroke:#000000;stroke-width:1.0;"/><polygon fill="#000000" points="1508.04,715.4373,1507.0506,705.6383,1505.5606,711.0954,1500.1035,709.6053,1508.04,715.4373" style="stroke:#000000;stroke-width:1.0;"/><text fill="#000000" font-family="Verdana" font-size="13" lengthAdjust="spacing" textLength="44" x="1405" y="571.3071">HTTPS</text></g><!--link webservice to pg--><g id="link_webservice_pg"><path d="M84.14,610.0773 C74.97,624.6873 69.87,641.2173 77,656.7373 C84.44,672.9273 92.3497,683.1503 105.7997,694.9503 " fill="none" id="webservice-to-pg" style="stroke:#000000;stroke-width:1.0;"/><polygon fill="#000000" points="110.31,698.9073,106.1826,689.965,106.5514,695.6098,100.9066,695.9787,110.31,698.9073" style="stroke:#000000;stroke-width:1.0;"/><text fill="#000000" font-family="Verdana" font-size="13" lengthAdjust="spacing" textLength="92" x="78" y="653.8071">SQL (internal)</text></g><!--link worker to pg--><g id="link_worker_pg"><path d="M243.21,609.7673 C231.37,618.5673 220.11,628.5973 211,639.7373 C197.03,656.8273 189.3947,673.8151 183.3047,693.1251 " fill="none" id="worker-to-pg" style="stroke:#000000;stroke-width:1.0;"/><polygon fill="#000000" points="181.5,698.8473,188.0218,691.4672,183.0039,694.0788,180.3922,689.0609,181.5,698.8473" style="stroke:#000000;stroke-width:1.0;"/><text fill="#000000" font-family="Verdana" font-size="13" lengthAdjust="spacing" textLength="92" x="212" y="653.8071">SQL (internal)</text></g><!--link worker to tg_api--><g id="link_worker_tg_api"><path d="M403.67,608.5473 C405.11,608.9673 406.56,609.3673 408,609.7373 C588.24,656.1573 1060.12,618.2873 1245,639.7373 C1283.7,644.2273 1292.63,649.9473 1331,656.7373 C1373.52,664.2573 1387.02,655.4073 1427,671.7373 C1452.36,682.0973 1472.806,696.7478 1490.506,711.6178 " fill="none" id="worker-to-tg_api" style="stroke:#000000;stroke-width:1.0;"/><polygon fill="#000000" points="1495.1,715.4773,1490.782,706.6255,1491.2717,712.2611,1485.6361,712.7508,1495.1,715.4773" style="stroke:#000000;stroke-width:1.0;"/><text fill="#000000" font-family="Verdana" font-size="13" lengthAdjust="spacing" textLength="110" x="1332" y="653.8071">HTTPS (Bot API)</text></g><!--link worker to khl--><g id="link_worker_khl"><path d="M403.71,608.3973 C405.14,608.8673 406.57,609.3173 408,609.7373 C500.15,637.0973 742.18,649.0773 838,656.7373 C870.83,659.3573 1104.44,657.2273 1134,671.7373 C1153.11,681.1173 1165.0982,695.0914 1175.0082,710.3914 " fill="none" id="worker-to-khl" style="stroke:#000000;stroke-width:1.0;"/><polygon fill="#000000" points="1178.27,715.4273,1176.7345,705.6989,1175.5518,711.2307,1170.02,710.048,1178.27,715.4273" style="stroke:#000000;stroke-width:1.0;"/><text fill="#000000" font-family="Verdana" font-size="13" lengthAdjust="spacing" textLength="129" x="839" y="653.8071">HTTPS (Playwright)</text></g><!--link worker to club--><g id="link_worker_club"><path d="M403.68,608.5073 C405.12,608.9473 406.56,609.3573 408,609.7373 C529.48,642.1473 847.76,628.6573 973,639.7373 C1034.12,645.1473 1049.06,649.6473 1110,656.7373 C1171.28,663.8673 1190.59,649.1373 1248,671.7373 C1272.95,681.5573 1292.5752,696.3091 1309.3952,711.4091 " fill="none" id="worker-to-club" style="stroke:#000000;stroke-width:1.0;"/><polygon fill="#000000" points="1313.86,715.4173,1309.835,706.4285,1310.1394,712.0771,1304.4907,712.3815,1313.86,715.4173" style="stroke:#000000;stroke-width:1.0;"/><text fill="#000000" font-family="Verdana" font-size="13" lengthAdjust="spacing" textLength="129" x="1111" y="653.8071">HTTPS (Playwright)</text></g><!--link worker to yandex--><g id="link_worker_yandex"><path d="M322.83,609.8273 C325.15,627.0773 331.13,645.4973 345,656.7373 C386.19,690.1273 772.25,653.3873 822,671.7373 C846.43,680.7473 864.8787,695.7633 880.3487,711.2433 " fill="none" id="worker-to-yandex" style="stroke:#000000;stroke-width:1.0;"/><polygon fill="#000000" points="884.59,715.4873,881.0574,706.2938,881.0556,711.9506,875.3988,711.9488,884.59,715.4873" style="stroke:#000000;stroke-width:1.0;"/><text fill="#000000" font-family="Verdana" font-size="13" lengthAdjust="spacing" textLength="129" x="346" y="653.8071">HTTPS (Playwright)</text></g><!--link worker to gmail--><g id="link_worker_gmail"><path d="M403.92,607.8473 C405.29,608.4873 406.65,609.1173 408,609.7373 C439.49,624.2373 448.32,625.6673 480,639.7373 C496.17,646.9173 498.8,652.5873 516,656.7373 C567.01,669.0273 939.38,652.0173 988,671.7373 C1010.4,680.8273 1026.352,695.5332 1039.682,710.9932 " fill="none" id="worker-to-gmail" style="stroke:#000000;stroke-width:1.0;"/><polygon fill="#000000" points="1043.6,715.5373,1040.7523,706.1091,1040.335,711.7505,1034.6935,711.3332,1043.6,715.5373" style="stroke:#000000;stroke-width:1.0;"/><text fill="#000000" font-family="Verdana" font-size="13" lengthAdjust="spacing" textLength="37" x="517" y="653.8071">SMTP</text></g><!--link render to GMN29--><g id="link_render_GMN29"><path d="M447.2569,567.4719 C447.6358,567.5074 448.0266,567.5441 448.4293,567.5822 C449.2346,567.6584 450.0872,567.7398 450.9853,567.8265 C458.1704,568.5201 468.2701,569.5517 480.4089,570.9436 C504.6866,573.7273 537.1206,577.9523 570.7063,583.7973 C637.8775,595.4873 709.655,613.6573 730,639.7373 C742.38,655.6073 736.06,671.9273 722.2,686.6073 " fill="none" id="render-GMN29" style="stroke:#000000;stroke-width:1.0;stroke-dasharray:7.0,7.0;"/></g><!--SRC=[XLNXJjim4FwVfxXrFzQ2Ei4eK2g4bBR9G8EjMpjDav0cDt5JgubjEGwbGfDu29vWZyQJxEoaJKAfa2hLyNtvVD_TvyixFQS91HaJnXr7CnrJ658PYrL2kOOX8v4Y2Jm_Fi6b21PqDGuKaP8gn_a0pq-F-G_62yRBHoV5HqdCYro451uSW3u95f4I6Gy78XOAtll7dkTtJKIeaAfYj-jrEkxG-LkX28acKvBkeF6wVjS_VabpwFO7PuCQJH2BBDoHYkUVUQSlEVp3GUV0ht6GG6FaTGvts1zkoV5EEuEZUXwA1fhmADwXPtZYkTjb-UHrJmQ7o5Eh-bUgbq8j48hl4yLeMkc1hNpZPqeLDlIE1RG198NGBktHkHYBiA4C5xXTvjVeAx5SHwVvkWwOq9XQVxXIMfIE_g0xJ9vvkHjNN5F5gRPHLZpKLVoW78N2A2Pw9bIo9Q68Dtr5-6AMATsoP2hVVgXdL81_qIcCgJ9QR_dS6ZSjZDicajtoNlVWuC3oBEaqpP5mVXuQgBguU9qKQqtL5jzKw5lUv08k9vDHdjlI8gjyIBZnSUE6S1BH44OYrP6Yu-_NMwJXr1B924bA61Azi81tRqfAuhNQgWEA5cn1B3EzrxPs1MZJoRxGu8wkocwo4lJbylgZocneCO_BVSqmTztE9QmHGPnDIyXlWYMy1tV6qZcnyPNTAH6V4y8mnvl9o8OZy_XIxI1BjKYmF3u968_03L1E2YEYvnNTniZGRbziF5lysxsr1w5d-pLsDXicMZ534OUc54f3ftFKmlbexLtZgR-VLsp3NKi-lmhOXy9E0v4a6MS1qKnKXsSb1qE95kW1zXwQh21eEOM_TeLhn-QkXM-PdfenKJsePAdd3St21RMJiEKb06_hQgbODDSrZ6dwcw2yys_2h0ECEBH4NP8RMwMQtT4UN8i0QueZhZOuD0MybsWM4BDYLA3LzlPoD4v16WjfFt52clgdlRqz13m__eFypa8W4YdmjcOIcgOs-uOGTxd6JoLLQQk0ovMUO__Q2M2- -DycSGpDbDdH8PKm3jsDbQmjUBpAZp2hdL0ylO3YQX-_9SRHwpVG00mbA_no4pC4of61HZLoFpfO0p1rSVu3]--></g></svg>