<?xml version="1.0" encoding="us-ascii" standalone="no"?><svg xmlns="http://www.w3.org/2000/svg" xmlns:xlink="http://www.w3.org/1999/xlink" contentStyleType="text/css" height="1072px" preserveAspectRatio="none" style="width:1891px;height:1072px;background:#FFFFFF;" version="1.1" viewBox="0 0 1891 1072" width="1891px" zoomAndPan="magnify"><defs/><g><text fill="#000000" font-family="Verdana" font-size="22" font-weight="bold" lengthAdjust="spacing" textLength="656" x="613.185" y="37.1182">Component Diagram &#8212; HockeyScrapper Architecture</text><!--cluster ext--><g id="cluster_ext"><polygon fill="#F5EEF8" points="1056.37,546.7373,1066.37,536.7373,1874.37,536.7373,1874.37,822.7373,1864.37,832.7373,1056.37,832.7373,1056.37,546.7373" style="stroke:#8E44AD;stroke-width:1.0;"/><line style="stroke:#8E44AD;stroke-width:1.0;" x1="1864.37" x2="1874.37" y1="546.7373" y2="536.7373"/><line style="stroke:#8E44AD;stroke-width:1.0;" x1="1056.37" x2="1864.37" y1="546.7373" y2="546.7373"/><line style="stroke:#8E44AD;stroke-width:1.0;" x1="1864.37" x2="1864.37" y1="546.7373" y2="832.7373"/><text fill="#000000" font-family="Verdana" font-size="14" font-weight="bold" lengthAdjust="spacing" textLength="133" x="1394.87" y="563.8125">External Systems</text></g><!--cluster Internal Components--><g id="cluster_Internal Components"><path d="M46.87,58.7373 L213.87,58.7373 A3.75,3.75 0 0 1 216.37,61.2373 L223.37,81.752 L1029.87,81.752 A2.5,2.5 0 0 1 1032.37,84.252 L1032.37,975.2373 A2.5,2.5 0 0 1 1029.87,977.7373 L46.87,977.7373 A2.5,2.5 0 0 1 44.37,975.2373 L44.37,61.2373 A2.5,2.5 0 0 1 46.87,58.7373 " fill="#FFFFFF" style="stroke:#000000;stroke-width:1.0;"/><line style="stroke:#000000;stroke-width:1.0;" x1="44.37" x2="223.37" y1="81.752" y2="81.752"/><text fill="#000000" font-family="Verdana" font-size="14" font-weight="bold" lengthAdjust="spacing" textLength="166" x="48.37" y="74.8125">Internal Components</text></g><!--entity user--><g id="elem_user"><ellipse cx="1807.37" cy="611.7373" fill="#FADBD8" rx="8" ry="8" style="stroke:#E74C3C;stroke-width:1.0;"/><path d="M1807.37,619.7373 L1807.37,646.7373 M1794.37,627.7373 L1820.37,627.7373 M1807.37,646.7373 L1794.37,661.7373 M1807.37,646.7373 L1820.37,661.7373 " fill="none" style="stroke:#E74C3C;stroke-width:1.0;"/><text fill="#000000" font-family="Verdana" font-size="14" lengthAdjust="spacing" textLength="101" x="1756.87" y="677.8125">Telegram User</text></g><!--entity webuser--><g id="elem_webuser"><ellipse cx="1243.37" cy="611.7373" fill="#FADBD8" rx="8" ry="8" style="stroke:#E74C3C;stroke-width:1.0;"/><path d="M1243.37,619.7373 L1243.37,646.7373 M1230.37,627.7373 L1256.37,627.7373 M1243.37,646.7373 L1230.37,661.7373 M1243.37,646.7373 L1256.37,661.7373 " fill="none" style="stroke:#E74C3C;stroke-width:1.0;"/><text fill="#000000" font-family="Verdana" font-size="14" lengthAdjust="spacing" textLength="69" x="1208.87" y="677.8125">Web User</text></g><!--entity tg_api--><g id="elem_tg_api"><rect fill="#FEF9E7" height="54.0293" rx="2.5" ry="2.5" style="stroke:#F1C40F;stroke-width:1.0;" width="142" x="1194.37" y="762.7373"/><text fill="#000000" font-family="Verdana" font-size="14" font-style="italic" lengthAdjust="spacing" textLength="64" x="1233.37" y="786.8125">&#171;HTTPS&#187;</text><text fill="#000000" font-family="Verdana" font-size="14" lengthAdjust="spacing" textLength="122" x="1204.37" y="803.8271">Telegram Bot API</text></g><!--entity khl--><g id="elem_khl"><rect fill="#FEF9E7" height="54.0293" rx="2.5" ry="2.5" style="stroke:#F1C40F;stroke-width:1.0;" width="84" x="1482.37" y="614.7373"/><text fill="#000000" font-family="Verdana" font-size="14" font-style="italic" lengthAdjust="spacing" textLength="64" x="1492.37" y="638.8125">&#171;HTTPS&#187;</text><text fill="#000000" font-family="Verdana" font-size="14" lengthAdjust="spacing" textLength="48" x="1500.37" y="655.8271">KHL.ru</text></g><!--entity club--><g id="elem_club"><rect fill="#FEF9E7" height="54.0293" rx="2.5" ry="2.5" style="stroke:#F1C40F;stroke-width:1.0;" width="134" x="1313.37" y="614.7373"/><text fill="#000000" font-family="Verdana" font-size="14" font-style="italic" lengthAdjust="spacing" textLength="64" x="1348.37" y="638.8125">&#171;HTTPS&#187;</text><text fill="#000000" font-family="Verdana" font-size="14" lengthAdjust="spacing" textLength="114" x="1323.37" y="655.8271">ticket-hockey.ru</text></g><!--entity yandex--><g id="elem_yandex"><rect fill="#FEF9E7" height="54.0293" rx="2.5" ry="2.5" style="stroke:#F1C40F;stroke-width:1.0;" width="120" x="1601.37" y="614.7373"/><text fill="#000000" font-family="Verdana" font-size="14" font-style="italic" lengthAdjust="spacing" textLength="64" x="1629.37" y="638.8125">&#171;HTTPS&#187;</text><text fill="#000000" font-family="Verdana" font-size="14" lengthAdjust="spacing" textLength="100" x="1611.37" y="655.8271">Yandex Afisha</text></g><!--entity gmail--><g id="elem_gmail"><rect fill="#FEF9E7" height="54.0293" rx="2.5" ry="2.5" style="stroke:#F1C40F;stroke-width:1.0;" width="101" x="1072.87" y="614.7373"/><text fill="#000000" font-family="Verdana" font-size="14" font-style="italic" lengthAdjust="spacing" textLength="56" x="1095.37" y="638.8125">&#171;SMTP&#187;</text><text fill="#000000" font-family="Verdana" font-size="14" lengthAdjust="spacing" textLength="81" x="1082.87" y="655.8271">Gmail SMTP</text></g><!--entity main--><g id="elem_main"><rect fill="#FFFFFF" height="64.0293" rx="2.5" ry="2.5" style="stroke:#2E86C1;stroke-width:1.0;" width="142" x="397.37" y="114.7373"/><rect fill="#FFFFFF" height="10" style="stroke:#2E86C1;stroke-width:1.0;" width="15" x="519.37" y="119.7373"/><rect fill="#FFFFFF" height="2" style="stroke:#2E86C1;stroke-width:1.0;" width="4" x="517.37" y="121.7373"/><rect fill="#FFFFFF" height="2" style="stroke:#2E86C1;stroke-width:1.0;" width="4" x="517.37" y="125.7373"/><text fill="#2E86C1" font-family="Verdana" font-size="14" lengthAdjust="spacing" textLength="55" x="412.37" y="148.8125">main.py</text><text fill="#2E86C1" font-family="Verdana" font-size="14" lengthAdjust="spacing" textLength="102" x="412.37" y="165.8271">[Orchestrator]</text></g><!--entity backend--><g id="elem_backend"><rect fill="#FFFFFF" height="64.0293" rx="2.5" ry="2.5" style="stroke:#2E86C1;stroke-width:1.0;" width="157" x="384.87" y="609.7373"/><rect fill="#FFFFFF" height="10" style="stroke:#2E86C1;stroke-width:1.0;" width="15" x="521.87" y="614.7373"/><rect fill="#FFFFFF" height="2" style="stroke:#2E86C1;stroke-width:1.0;" width="4" x="519.87" y="616.7373"/><rect fill="#FFFFFF" height="2" style="stroke:#2E86C1;stroke-width:1.0;" width="4" x="519.87" y="620.7373"/><text fill="#2E86C1" font-family="Verdana" font-size="14" font-style="italic" lengthAdjust="spacing" textLength="85" x="415.87" y="643.8125">&#171;REST API&#187;</text><text fill="#2E86C1" font-family="Verdana" font-size="14" lengthAdjust="spacing" textLength="117" x="399.87" y="660.8271">FastAPI Backend</text></g><!--entity frontend--><g id="elem_frontend"><rect fill="#FFFFFF" height="64.0293" rx="2.5" ry="2.5" style="stroke:#2E86C1;stroke-width:1.0;" width="135" x="271.87" y="379.7373"/><rect fill="#FFFFFF" height="10" style="stroke:#2E86C1;stroke-width:1.0;" width="15" x="386.87" y="384.7373"/><rect fill="#FFFFFF" height="2" style="stroke:#2E86C1;stroke-width:1.0;" width="4" x="384.87" y="386.7373"/><rect fill="#FFFFFF" height="2" style="stroke:#2E86C1;stroke-width:1.0;" width="4" x="384.87" y="390.7373"/><text fill="#2E86C1" font-family="Verdana" font-size="14" lengthAdjust="spacing" textLength="64" x="286.87" y="413.8125">Frontend</text><text fill="#2E86C1" font-family="Verdana" font-size="14" lengthAdjust="spacing" textLength="95" x="286.87" y="430.8271">(Static HTML)</text></g><!--entity bot--><g id="elem_bot"><rect fill="#FFFFFF" height="64.0293" rx="2.5" ry="2.5" style="stroke:#2E86C1;stroke-width:1.0;" width="134" x="622.37" y="609.7373"/><rect fill="#FFFFFF" height="10" style="stroke:#2E86C1;stroke-width:1.0;" width="15" x="736.37" y="614.7373"/><rect fill="#FFFFFF" height="2" style="stroke:#2E86C1;stroke-width:1.0;" width="4" x="734.37" y="616.7373"/><rect fill="#FFFFFF" height="2" style="stroke:#2E86C1;stroke-width:1.0;" width="4" x="734.37" y="620.7373"/><text fill="#2E86C1" font-family="Verdana" font-size="14" lengthAdjust="spacing" textLength="94" x="637.37" y="643.8125">Telegram Bot</text><text fill="#2E86C1" font-family="Verdana" font-size="14" lengthAdjust="spacing" textLength="68" x="637.37" y="660.8271">(aiogram)</text></g><!--entity runner--><g id="elem_runner"><rect fill="#FFFFFF" height="47.0146" rx="2.5" ry="2.5" style="stroke:#2E86C1;stroke-width:1.0;" width="140" x="398.37" y="255.7373"/><rect fill="#FFFFFF" height="10" style="stroke:#2E86C1;stroke-width:1.0;" width="15" x="518.37" y="260.7373"/><rect fill="#FFFFFF" height="2" style="stroke:#2E86C1;stroke-width:1.0;" width="4" x="516.37" y="262.7373"/><rect fill="#FFFFFF" height="2" style="stroke:#2E86C1;stroke-width:1.0;" width="4" x="516.37" y="266.7373"/><text fill="#2E86C1" font-family="Verdana" font-size="14" lengthAdjust="spacing" textLength="100" x="413.37" y="289.8125">Parser Runner</text></g><!--entity config--><g id="elem_config"><path d="M97.37,390.2373 C97.37,380.2373 148.37,380.2373 148.37,380.2373 C148.37,380.2373 199.37,380.2373 199.37,390.2373 L199.37,433.2666 C199.37,443.2666 148.37,443.2666 148.37,443.2666 C148.37,443.2666 97.37,443.2666 97.37,433.2666 L97.37,390.2373 " fill="#E8F8F5" style="stroke:#1ABC9C;stroke-width:1.0;"/><path d="M97.37,390.2373 C97.37,400.2373 148.37,400.2373 148.37,400.2373 C148.37,400.2373 199.37,400.2373 199.37,390.2373 " fill="none" style="stroke:#1ABC9C;stroke-width:1.0;"/><text fill="#000000" font-family="Verdana" font-size="14" lengthAdjust="spacing" textLength="45" x="107.37" y="418.3125">Config</text><text fill="#000000" font-family="Verdana" font-size="14" lengthAdjust="spacing" textLength="82" x="107.37" y="435.3271">(sites.yaml)</text></g><!--entity clubp--><g id="elem_clubp"><rect fill="#FFFFFF" height="47.0146" rx="2.5" ry="2.5" style="stroke:#2E86C1;stroke-width:1.0;" width="120" x="567.37" y="388.2373"/><rect fill="#FFFFFF" height="10" style="stroke:#2E86C1;stroke-width:1.0;" width="15" x="667.37" y="393.2373"/><rect fill="#FFFFFF" height="2" style="stroke:#2E86C1;stroke-width:1.0;" width="4" x="665.37" y="395.2373"/><rect fill="#FFFFFF" height="2" style="stroke:#2E86C1;stroke-width:1.0;" width="4" x="665.37" y="399.2373"/><text fill="#2E86C1" font-family="Verdana" font-size="14" lengthAdjust="spacing" textLength="80" x="582.37" y="422.3125">Club Parser</text></g><!--entity khlp--><g id="elem_khlp"><rect fill="#FFFFFF" height="47.0146" rx="2.5" ry="2.5" style="stroke:#2E86C1;stroke-width:1.0;" width="117" x="722.87" y="388.2373"/><rect fill="#FFFFFF" height="10" style="stroke:#2E86C1;stroke-width:1.0;" width="15" x="819.87" y="393.2373"/><rect fill="#FFFFFF" height="2" style="stroke:#2E86C1;stroke-width:1.0;" width="4" x="817.87" y="395.2373"/><rect fill="#FFFFFF" height="2" style="stroke:#2E86C1;stroke-width:1.0;" width="4" x="817.87" y="399.2373"/><text fill="#2E86C1" font-family="Verdana" font-size="14" lengthAdjust="spacing" textLength="77" x="737.87" y="422.3125">KHL Parser</text></g><!--entity yandexp--><g id="elem_yandexp"><rect fill="#FFFFFF" height="47.0146" rx="2.5" ry="2.5" style="stroke:#2E86C1;stroke-width:1.0;" width="141" x="874.87" y="388.2373"/><rect fill="#FFFFFF" height="10" style="stroke:#2E86C1;stroke-width:1.0;" width="15" x="995.87" y="393.2373"/><rect fill="#FFFFFF" height="2" style="stroke:#2E86C1;stroke-width:1.0;" width="4" x="993.87" y="395.2373"/><rect fill="#FFFFFF" height="2" style="stroke:#2E86C1;stroke-width:1.0;" width="4" x="993.87" y="399.2373"/><text fill="#2E86C1" font-family="Verdana" font-size="14" lengthAdjust="spacing" textLength="101" x="889.87" y="422.3125">Yandex Parser</text></g><!--entity proxy--><g id="elem_proxy"><rect fill="#FFFFFF" height="47.0146" rx="2.5" ry="2.5" style="stroke:#2E86C1;stroke-width:1.0;" width="139" x="814.87" y="618.2373"/><rect fill="#FFFFFF" height="10" style="stroke:#2E86C1;stroke-width:1.0;" width="15" x="933.87" y="623.2373"/><rect fill="#FFFFFF" height="2" style="stroke:#2E86C1;stroke-width:1.0;" width="4" x="931.87" y="625.2373"/><rect fill="#FFFFFF" height="2" style="stroke:#2E86C1;stroke-width:1.0;" width="4" x="931.87" y="629.2373"/><text fill="#2E86C1" font-family="Verdana" font-size="14" lengthAdjust="spacing" textLength="99" x="829.87" y="652.3125">Proxy Rotator</text></g><!--entity notifier--><g id="elem_notifier"><rect fill="#FFFFFF" height="47.0146" rx="2.5" ry="2.5" style="stroke:#2E86C1;stroke-width:1.0;" width="90" x="442.37" y="388.2373"/><rect fill="#FFFFFF" height="10" style="stroke:#2E86C1;stroke-width:1.0;" width="15" x="512.37" y="393.2373"/><rect fill="#FFFFFF" height="2" style="stroke:#2E86C1;stroke-width:1.0;" width="4" x="510.37" y="395.2373"/><rect fill="#FFFFFF" height="2" style="stroke:#2E86C1;stroke-width:1.0;" width="4" x="510.37" y="399.2373"/><text fill="#2E86C1" font-family="Verdana" font-size="14" lengthAdjust="spacing" textLength="50" x="457.37" y="422.3125">Notifier</text></g><!--entity matcher--><g id="elem_matcher"><rect fill="#FFFFFF" height="47.0146" rx="2.5" ry="2.5" style="stroke:#2E86C1;stroke-width:1.0;" width="138" x="201.37" y="473.7373"/><rect fill="#FFFFFF" height="10" style="stroke:#2E86C1;stroke-width:1.0;" width="15" x="319.37" y="478.7373"/><rect fill="#FFFFFF" height="2" style="stroke:#2E86C1;stroke-width:1.0;" width="4" x="317.37" y="480.7373"/><rect fill="#FFFFFF" height="2" style="stroke:#2E86C1;stroke-width:1.0;" width="4" x="317.37" y="484.7373"/><text fill="#2E86C1" font-family="Verdana" font-size="14" lengthAdjust="spacing" textLength="98" x="216.37" y="507.8125">Team Matcher</text></g><!--entity db_layer--><g id="elem_db_layer"><rect fill="#FFFFFF" height="64.0293" rx="2.5" ry="2.5" style="stroke:#2E86C1;stroke-width:1.0;" width="200" x="193.37" y="757.7373"/><rect fill="#FFFFFF" height="10" style="stroke:#2E86C1;stroke-width:1.0;" width="15" x="373.37" y="762.7373"/><rect fill="#FFFFFF" height="2" style="stroke:#2E86C1;stroke-width:1.0;" width="4" x="371.37" y="764.7373"/><rect fill="#FFFFFF" height="2" style="stroke:#2E86C1;stroke-width:1.0;" width="4" x="371.37" y="768.7373"/><text fill="#2E86C1" font-family="Verdana" font-size="14" lengthAdjust="spacing" textLength="109" x="208.37" y="791.8125">Database Layer</text><text fill="#2E86C1" font-family="Verdana" font-size="14" lengthAdjust="spacing" textLength="160" x="208.37" y="808.8271">(services/database.py)</text></g><!--entity db--><g id="elem_db"><path d="M295.87,908.7373 C295.87,898.7373 378.37,898.7373 378.37,898.7373 C378.37,898.7373 460.87,898.7373 460.87,908.7373 L460.87,951.7666 C460.87,961.7666 378.37,961.7666 378.37,961.7666 C378.37,961.7666 295.87,961.7666 295.87,951.7666 L295.87,908.7373 " fill="#E8F8F5" style="stroke:#1ABC9C;stroke-width:1.0;"/><path d="M295.87,908.7373 C295.87,918.7373 378.37,918.7373 378.37,918.7373 C378.37,918.7373 460.87,918.7373 460.87,908.7373 " fill="none" style="stroke:#1ABC9C;stroke-width:1.0;"/><text fill="#000000" font-family="Verdana" font-size="14" font-style="italic" lengthAdjust="spacing" textLength="83" x="336.87" y="936.8125">&#171;Database&#187;</text><text fill="#000000" font-family="Verdana" font-size="14" lengthAdjust="spacing" textLength="145" x="305.87" y="953.8271">PostgreSQL / SQLite</text></g><!--link main to runner--><g id="link_main_runner"><path d="M468.37,178.9973 C468.37,202.5173 468.37,228.2273 468.37,249.4073 " fill="none" id="main-to-runner" style="stroke:#000000;stroke-width:1.0;"/><polygon fill="#000000" points="468.37,255.4073,472.37,246.4073,468.37,250.4073,464.37,246.4073,468.37,255.4073" style="stroke:#000000;stroke-width:1.0;"/><text fill="#000000" font-family="Verdana" font-size="13" lengthAdjust="spacing" textLength="39" x="469.37" y="222.8071">starts</text></g><!--link runner to config--><g id="link_runner_config"><path d="M398.06,282.2273 C315.65,286.1573 186.27,297.8673 154.37,332.7373 C142.91,345.2673 140.7404,358.1757 142.0004,374.2257 " fill="none" id="runner-to-config" style="stroke:#000000;stroke-width:1.0;"/><polygon fill="#000000" points="142.47,380.2073,145.7534,370.9219,142.0787,375.2226,137.7779,371.548,142.47,380.2073" style="stroke:#000000;stroke-width:1.0;"/><text fill="#000000" font-family="Verdana" font-size="13" lengthAdjust="spacing" textLength="36" x="155.37" y="346.8071">reads</text></g><!--link runner to clubp--><g id="link_runner_clubp"><path d="M538.4,301.2573 C556.21,309.0473 574.27,319.3473 588.37,332.7373 C604.29,347.8573 612.6857,365.2184 618.7157,382.3284 " fill="none" id="runner-to-clubp" style="stroke:#000000;stroke-width:1.0;"/><polygon fill="#000000" points="620.71,387.9873,621.4911,378.1695,619.0481,383.2716,613.9459,380.8286,620.71,387.9873" style="stroke:#000000;stroke-width:1.0;"/><text fill="#000000" font-family="Verdana" font-size="13" lengthAdjust="spacing" textLength="50" x="603.37" y="346.8071">creates</text></g><!--link runner to khlp--><g id="link_runner_khlp"><path d="M538.44,293.5773 C576.15,302.1373 622.9,315.0073 662.37,332.7373 C695.27,347.5173 724.5383,367.2229 747.7483,384.5129 " fill="none" id="runner-to-khlp" style="stroke:#000000;stroke-width:1.0;"/><polygon fill="#000000" points="752.56,388.0973,747.7321,379.5129,748.5503,385.1103,742.9529,385.9285,752.56,388.0973" style="stroke:#000000;stroke-width:1.0;"/><text fill="#000000" font-family="Verdana" font-size="13" lengthAdjust="spacing" textLength="50" x="695.37" y="346.8071">creates</text></g><!--link runner to yandexp--><g id="link_runner_yandexp"><path d="M538.66,289.0173 C597.14,297.2973 682.18,311.6173 754.37,332.7373 C804.73,347.4673 854.5392,368.4015 892.6092,385.7315 " fill="none" id="runner-to-yandexp" style="stroke:#000000;stroke-width:1.0;"/><polygon fill="#000000" points="898.07,388.2173,891.536,380.848,893.5193,386.1458,888.2215,388.1291,898.07,388.2173" style="stroke:#000000;stroke-width:1.0;"/><text fill="#000000" font-family="Verdana" font-size="13" lengthAdjust="spacing" textLength="50" x="804.37" y="346.8071">creates</text></g><!--link clubp to proxy--><g id="link_clubp_proxy"><path d="M624.03,435.5873 C621.82,460.5073 622.82,499.6673 646.37,520.7373 C667.45,539.5873 747.62,517.0373 773.37,528.7373 C815.74,547.9873 847.3466,586.1437 866.1066,612.9137 " fill="none" id="clubp-to-proxy" style="stroke:#000000;stroke-width:1.0;"/><polygon fill="#000000" points="869.55,617.8273,867.6607,608.1614,866.6805,613.7327,861.1092,612.7525,869.55,617.8273" style="stroke:#000000;stroke-width:1.0;"/><text fill="#000000" font-family="Verdana" font-size="13" lengthAdjust="spacing" textLength="30" x="647.37" y="502.8071">uses</text></g><!--link khlp to proxy--><g id="link_khlp_proxy"><path d="M811.9,435.3273 C823.99,445.7573 836.99,459.0773 845.37,473.7373 C872.12,520.5173 880.0693,578.6458 882.7093,612.1958 " fill="none" id="khlp-to-proxy" style="stroke:#000000;stroke-width:1.0;"/><polygon fill="#000000" points="883.18,618.1773,886.4617,608.8913,882.7878,613.1927,878.4863,609.5188,883.18,618.1773" style="stroke:#000000;stroke-width:1.0;"/><text fill="#000000" font-family="Verdana" font-size="13" lengthAdjust="spacing" textLength="30" x="865.37" y="502.8071">uses</text></g><!--link yandexp to proxy--><g id="link_yandexp_proxy"><path d="M939.57,435.5173 C933.97,457.3973 925.22,491.3573 917.37,520.7373 C908.28,554.7673 899.0016,588.3278 892.2816,612.4278 " fill="none" id="yandexp-to-proxy" style="stroke:#000000;stroke-width:1.0;"/><polygon fill="#000000" points="890.67,618.2073,896.9403,610.6124,892.013,613.391,889.2343,608.4637,890.67,618.2073" style="stroke:#000000;stroke-width:1.0;"/><text fill="#000000" font-family="Verdana" font-size="13" lengthAdjust="spacing" textLength="30" x="930.37" y="502.8071">uses</text></g><!--link clubp to club--><g id="link_clubp_club"><path d="M677.4,435.2973 C686.55,438.6473 696.13,441.6673 705.37,443.7373 C911.77,490.0373 976.13,418.6673 1180.37,473.7373 C1225.47,485.8973 1231.6,501.9573 1274.37,520.7373 C1283.51,524.7573 1287.38,522.7473 1295.37,528.7373 C1326.44,552.0073 1348.672,584.3974 1363.362,609.5274 " fill="none" id="clubp-to-club" style="stroke:#000000;stroke-width:1.0;"/><polygon fill="#000000" points="1366.39,614.7073,1365.3013,604.9188,1363.8667,610.3907,1358.3948,608.9561,1366.39,614.7073" style="stroke:#000000;stroke-width:1.0;"/><text fill="#000000" font-family="Verdana" font-size="13" lengthAdjust="spacing" textLength="120" x="1275.37" y="502.8071">HTTP (Playwright)</text></g><!--link khlp to khl--><g id="link_khlp_khl"><path d="M830.07,435.3673 C838.99,438.7073 848.33,441.7073 857.37,443.7373 C976.15,470.4273 1291.97,426.9773 1404.37,473.7373 C1465.02,498.9673 1498.3696,568.5907 1513.5196,608.9107 " fill="none" id="khlp-to-khl" style="stroke:#000000;stroke-width:1.0;"/><polygon fill="#000000" points="1515.63,614.5273,1516.2088,604.6955,1513.8713,609.8468,1508.72,607.5093,1515.63,614.5273" style="stroke:#000000;stroke-width:1.0;"/><text fill="#000000" font-family="Verdana" font-size="13" lengthAdjust="spacing" textLength="120" x="1461.37" y="502.8071">HTTP (Playwright)</text></g><!--link yandexp to yandex--><g id="link_yandexp_yandex"><path d="M1016.12,415.1773 C1175.41,421.2773 1551.83,439.1873 1597.37,473.7373 C1642.02,507.6073 1654.8766,570.7719 1658.9566,608.6019 " fill="none" id="yandexp-to-yandex" style="stroke:#000000;stroke-width:1.0;"/><polygon fill="#000000" points="1659.6,614.5673,1662.6119,605.1903,1659.0639,609.5961,1654.658,606.0481,1659.6,614.5673" style="stroke:#000000;stroke-width:1.0;"/><text fill="#000000" font-family="Verdana" font-size="13" lengthAdjust="spacing" textLength="120" x="1633.37" y="502.8071">HTTP (Playwright)</text></g><!--link runner to db_layer--><g id="link_runner_db_layer"><path d="M398.21,280.9173 C329.09,283.9473 221.87,295.0873 137.37,332.7373 C107.06,346.2373 93.65,349.7873 79.37,379.7373 C11,523.1473 172.3253,685.7983 250.6353,753.6483 " fill="none" id="runner-to-db_layer" style="stroke:#000000;stroke-width:1.0;"/><polygon fill="#000000" points="255.17,757.5773,250.9873,748.6607,251.3911,754.3032,245.7487,754.707,255.17,757.5773" style="stroke:#000000;stroke-width:1.0;"/><text fill="#000000" font-family="Verdana" font-size="13" lengthAdjust="spacing" textLength="99" x="76.37" y="502.8071">saves matches</text></g><!--link db_layer to db--><g id="link_db_layer_db"><path d="M312.45,821.8173 C326.54,844.7873 342.5018,870.7934 356.5118,893.6234 " fill="none" id="db_layer-to-db" style="stroke:#000000;stroke-width:1.0;"/><polygon fill="#000000" points="359.65,898.7373,358.3519,888.9744,357.0348,894.4757,351.5334,893.1586,359.65,898.7373" style="stroke:#000000;stroke-width:1.0;"/><text fill="#000000" font-family="Verdana" font-size="13" lengthAdjust="spacing" textLength="26" x="342.37" y="865.8071">SQL</text></g><!--link backend to db--><g id="link_backend_db"><path d="M458.48,674.0373 C455.71,690.1873 451.89,710.1373 447.37,727.7373 C431.51,789.5173 407.869,853.9331 392.709,893.0331 " fill="none" id="backend-to-db" style="stroke:#000000;stroke-width:1.0;"/><polygon fill="#000000" points="390.54,898.6273,397.523,891.682,392.3475,893.9654,390.064,888.79,390.54,898.6273" style="stroke:#000000;stroke-width:1.0;"/><text fill="#000000" font-family="Verdana" font-size="13" lengthAdjust="spacing" textLength="124" x="440.37" y="795.3071">SQL (SQLAlchemy)</text></g><!--link runner to matcher--><g id="link_runner_matcher"><path d="M398.25,292.4773 C348.74,305.1673 285.82,330.4273 254.37,379.7373 C236.25,408.1373 245.7701,442.8152 256.5101,467.7952 " fill="none" id="runner-to-matcher" style="stroke:#000000;stroke-width:1.0;"/><polygon fill="#000000" points="258.88,473.3073,258.9999,463.4592,256.9051,468.7139,251.6504,466.6191,258.88,473.3073" style="stroke:#000000;stroke-width:1.0;"/><text fill="#000000" font-family="Verdana" font-size="13" lengthAdjust="spacing" textLength="93" x="303.37" y="346.8071">extract teams</text></g><!--link runner to notifier--><g id="link_runner_notifier"><path d="M464.94,302.9373 C463.48,316.5873 462.67,334.2673 465.37,349.7373 C467.66,362.8273 470.2553,371.2471 474.8253,382.5171 " fill="none" id="runner-to-notifier" style="stroke:#000000;stroke-width:1.0;"/><polygon fill="#000000" points="477.08,388.0773,477.4048,378.2338,475.2011,383.4438,469.9911,381.2401,477.08,388.0773" style="stroke:#000000;stroke-width:1.0;"/><text fill="#000000" font-family="Verdana" font-size="13" lengthAdjust="spacing" textLength="117" x="466.37" y="346.8071">notify subscribers</text></g><!--link notifier to bot--><g id="link_notifier_bot"><path d="M483.84,435.6273 C481.47,460.2173 482.1,498.7173 504.37,520.7373 C521.94,538.0973 536.89,518.4873 559.37,528.7373 C600.57,547.5273 634.6058,579.0826 658.7658,605.2026 " fill="none" id="notifier-to-bot" style="stroke:#000000;stroke-width:1.0;"/><polygon fill="#000000" points="662.84,609.6073,659.6652,600.2842,659.4449,605.9367,653.7923,605.7164,662.84,609.6073" style="stroke:#000000;stroke-width:1.0;"/><text fill="#000000" font-family="Verdana" font-size="13" lengthAdjust="spacing" textLength="100" x="505.37" y="502.8071">send messages</text></g><!--link bot to tg_api--><g id="link_bot_tg_api"><path d="M737.18,673.9373 C767.77,692.4473 808.98,714.7673 848.37,727.7373 C864.61,733.0873 1073.6863,762.3472 1188.4163,778.1772 " fill="none" id="bot-to-tg_api" style="stroke:#000000;stroke-width:1.0;"/><polygon fill="#000000" points="1194.36,778.9973,1185.9912,773.8047,1189.4069,778.3139,1184.8977,781.7296,1194.36,778.9973" style="stroke:#000000;stroke-width:1.0;"/><text fill="#000000" font-family="Verdana" font-size="13" lengthAdjust="spacing" textLength="112" x="849.37" y="724.8071">HTTPS (aiogram)</text></g><!--reverse link bot to tg_api--><g id="link_bot_tg_api"><path d="M762.2214,670.1964 C775.6214,674.7464 784.01,677.2273 797.37,680.7373 C871.15,700.1273 891.85,694.4273 966.37,710.7373 C1044.85,727.9073 1133.83,751.6873 1194.16,768.4573 " fill="none" id="bot-backto-tg_api" style="stroke:#000000;stroke-width:1.0;"/><polygon fill="#000000" points="756.54,668.2673,763.776,674.9486,761.2745,669.8749,766.3482,667.3734,756.54,668.2673" style="stroke:#000000;stroke-width:1.0;"/><text fill="#000000" font-family="Verdana" font-size="13" lengthAdjust="spacing" textLength="69" x="1033.37" y="724.8071">commands</text></g><!--link tg_api to user--><g id="link_tg_api_user"><path d="M1336.7,778.9873 C1431.11,764.6373 1601.69,733.6373 1739.37,680.7373 C1745.05,678.5573 1745.4565,678.6164 1751.1265,675.8264 " fill="none" id="tg_api-to-user" style="stroke:#000000;stroke-width:1.0;"/><polygon fill="#000000" points="1756.51,673.1773,1746.6687,673.5618,1752.0237,675.3848,1750.2007,680.7399,1756.51,673.1773" style="stroke:#000000;stroke-width:1.0;"/><text fill="#000000" font-family="Verdana" font-size="13" lengthAdjust="spacing" textLength="81" x="1639.37" y="724.8071">notifications</text></g><!--link user to tg_api--><g id="link_user_tg_api"><path d="M1756.73,673.7973 C1751.01,676.4673 1745.16,678.8573 1739.37,680.7373 C1631.67,715.6873 1596.65,685.0673 1486.37,710.7373 C1431.48,723.5073 1376.8784,743.0879 1333.1984,760.3879 " fill="none" id="user-to-tg_api" style="stroke:#000000;stroke-width:1.0;"/><polygon fill="#000000" points="1327.62,762.5973,1337.4605,763.0021,1332.2687,760.7561,1334.5147,755.5643,1327.62,762.5973" style="stroke:#000000;stroke-width:1.0;"/><text fill="#000000" font-family="Verdana" font-size="13" lengthAdjust="spacing" textLength="103" x="1487.37" y="724.8071">/subscribe, /list</text></g><!--link webuser to frontend--><g id="link_webuser_frontend"><path d="M1235.55,602.5373 C1228.37,577.5473 1215.12,546.3773 1191.37,528.7373 C1171.19,513.7473 1159.96,525.9473 1135.37,520.7373 C1060.36,504.8373 1045,486.3673 969.37,473.7373 C730.09,433.7873 662.01,492.4873 424.37,443.7373 C418.68,442.5673 418.615,442.7501 412.825,441.0801 " fill="none" id="webuser-to-frontend" style="stroke:#000000;stroke-width:1.0;"/><polygon fill="#000000" points="407.06,439.4173,414.599,445.7548,411.8642,440.803,416.816,438.0682,407.06,439.4173" style="stroke:#000000;stroke-width:1.0;"/><text fill="#000000" font-family="Verdana" font-size="13" lengthAdjust="spacing" textLength="35" x="1136.37" y="502.8071">HTTP</text></g><!--link frontend to backend--><g id="link_frontend_backend"><path d="M347.4,443.9973 C353.72,466.1173 363.59,496.1073 376.37,520.7373 C393.08,552.9373 414.0082,581.4111 432.8182,604.6811 " fill="none" id="frontend-to-backend" style="stroke:#000000;stroke-width:1.0;"/><polygon fill="#000000" points="436.59,609.3473,434.043,599.8335,433.4468,605.4588,427.8215,604.8626,436.59,609.3473" style="stroke:#000000;stroke-width:1.0;"/><text fill="#000000" font-family="Verdana" font-size="13" lengthAdjust="spacing" textLength="86" x="377.37" y="502.8071">HTTP (REST)</text></g><!--link backend to gmail--><g id="link_backend_gmail"><path d="M491.94,609.5673 C518.16,582.5373 559.63,545.6773 604.37,528.7373 C638.7,515.7373 650.17,525.6273 686.87,524.7373 C840.39,521.0173 894.56,460.9673 1032.37,528.7373 C1068.99,546.7473 1092.8584,581.9229 1107.5384,609.2229 " fill="none" id="backend-to-gmail" style="stroke:#000000;stroke-width:1.0;"/><polygon fill="#000000" points="1110.38,614.5073,1109.6406,604.6862,1108.012,610.1036,1102.5946,608.475,1110.38,614.5073" style="stroke:#000000;stroke-width:1.0;"/><text fill="#000000" font-family="Verdana" font-size="13" lengthAdjust="spacing" textLength="155" x="687.87" y="502.8071">SMTP (password reset)</text></g><!--link bot to db_layer--><g id="link_bot_db_layer"><path d="M622.19,667.5073 C554.78,692.3573 456.3798,728.6424 383.4198,755.5324 " fill="none" id="bot-to-db_layer" style="stroke:#000000;stroke-width:1.0;"/><polygon fill="#000000" points="377.79,757.6073,387.618,758.2481,382.4815,755.8782,384.8514,750.7417,377.79,757.6073" style="stroke:#000000;stroke-width:1.0;"/><text fill="#000000" font-family="Verdana" font-size="13" lengthAdjust="spacing" textLength="47" x="504.37" y="724.8071">queries</text></g><!--link matcher to db_layer--><g id="link_matcher_db_layer"><path d="M272.17,521.0373 C276.26,572.6573 285.7565,692.616 290.4165,751.476 " fill="none" id="matcher-to-db_layer" style="stroke:#000000;stroke-width:1.0;"/><polygon fill="#000000" points="290.89,757.4573,294.1672,748.1697,290.4954,752.4729,286.1922,748.8011,290.89,757.4573" style="stroke:#000000;stroke-width:1.0;"/><text fill="#000000" font-family="Verdana" font-size="13" lengthAdjust="spacing" textLength="47" x="286.37" y="647.3071">queries</text></g><!--link backend to db_layer--><g id="link_backend_db_layer"><path d="M426.9,674.0573 C398.12,698.7773 362.7317,729.1681 334.0417,753.8081 " fill="none" id="backend-to-db_layer" style="stroke:#000000;stroke-width:1.0;"/><polygon fill="#000000" points="329.49,757.7173,338.9237,754.888,333.2831,754.4596,333.7115,748.819,329.49,757.7173" style="stroke:#000000;stroke-width:1.0;"/><text fill="#000000" font-family="Verdana" font-size="13" lengthAdjust="spacing" textLength="53" x="385.37" y="724.8071">settings</text></g><rect fill="none" height="70.7666" id="_legend" rx="7.5" ry="7.5" style="stroke:#000000;stroke-width:1.0;" width="157" x="1715.37" y="988.7373"/><text fill="#000000" font-family="Verdana" font-size="10" lengthAdjust="spacing" textLength="146" x="1720.37" y="1003.791">Communication protocols:</text><text fill="#000000" font-family="Verdana" font-size="10" lengthAdjust="spacing" textLength="92" x="1720.37" y="1015.9443">-- HTTP / HTTPS</text><text fill="#000000" font-family="Verdana" font-size="10" lengthAdjust="spacing" textLength="147" x="1720.37" y="1028.0977">-- SQL / SQLAlchemy ORM</text><text fill="#000000" font-family="Verdana" font-size="10" lengthAdjust="spacing" textLength="88" x="1720.37" y="1040.251">-- SMTP (Email)</text><text fill="#000000" font-family="Verdana" font-size="10" lengthAdjust="spacing" textLength="112" x="1720.37" y="1052.4043">-- Telegram Bot API</text><!--SRC=[TLRjRjis5FtFf-1SO4k0EMwsj7KDmu0_fALOihgnXw9eXuAMQPc8H6eatSGR1lGX-eHzajrBKhAas41WI3o7X-GvbrVvmMvvpccHCI49iS9cd4vLNYZ9fQKpmLBDSlhzwpTwhP9xlbyacXK5rtIiawsmFB4xpGanzq8M3Ab9DVbVGkc49VUfLZkvdgfCQVeUv-2uqckk_TYpNwB-o-abZCPAskROVtNfDRDinGm_glmiwiVz-4LR-t8ycRwUDdLOOW4wAXAFPvDPloqIlRgQ_jeIaMfzOYFnYoYAdsZqewkhyQofeS4-9jFib50KluvUjONYo-dLynY5VgBVlts5FnezMgubo-XYRopFJHWdRe-TDjgXp53-QCkTkiMz9vqbpxXB_4_3jIFkuE60l-Uh0_J0Lmu5-72IWyH4MJgUlt5KctvcXQ33uVLoEL-CHiqflr_VNEYT8zvlirCiAw00RNVhwh3a9zbkTMh21oRN_96EDy9icMFl_SW9_cyv4-3IxNBkoAbx7Gvn0AXrmz_8O6brLIhF2qYHfQ1sXDDnLXzkI0TMa1V5_fFy-1Qk4pTMCx3vBxTyxcvaWnupOy5HLobShXrjvPzXdtVHOec6ksFLPscuLa3v9CyMbe6Bz7fvUtFkPcy2rbgedY5COqBXcv-oKhR5dZCDPK3lTbA6oj3k4LZLbUrCbTo85CGCT01piMTvvlKI1xGafnYhrwrYBfeKA9ew0mgdHGZnrpW-_XPjhjNZdjufYzOxMe4ZhGtzeQpOYA0ZmqlRD33ibba8KeS4tNDBQLPQSiFsNACXN7yH2JUzqYoe26_DUlKvGn9fE3bNngQQBzxTq1w5N_0piA48IlLMmK8DvZif4eXVoQfM0NVzNCZKwTDDfXu85XxjTaSXHJgWnZ9j3Gdl2FdG0DAShPi89WL00WW4NOSmekD82AO6UXd4N1g0GAinn4ay6IsdFm4EAgvF32ZUUtes1rSVj4YtzloWY9td6A4k7lh7CHfw2GK4Lxz-i391D95zuMLD6581dWKu94dAormVf6VmCyvWLhvtoxWImyX-fBugVQhrPKFbWG3qUGszcreepeRbPGq3nptkgTcjJAB5Ycj3AXIfSEDn_xYnd1i3HpG4nn0BZTqxig1Lgo01G0v-9CfboXB4W-27X6vO0cSXuLlY-6LJ2ggaUdUR2HQL6M3NEsyOv_lsm3LoUbOmOnxW-mcLQZZaX1iVThk7ZSFLp25MGwhrAwXNMV8pxMN2MDmrVjQiehD9vK4jvBztN0kmfmpW10molX-w-zEA_L0nt5hm1kZGZH5tfGQzO6Z4Ftnm-NpKkDPO-bObAZE3OGyPepeLZkmCw_caZZEgdXBgZRwzkpt1TEP6QFNvSKRx_u2IXGVnvo7_0m00]--></g></svg>