<?xml version="1.0" encoding="us-ascii" standalone="no"?><svg xmlns="http://www.w3.org/2000/svg" xmlns:xlink="http://www.w3.org/1999/xlink" contentStyleType="text/css" height="1558px" preserveAspectRatio="none" style="width:1656px;height:1558px;background:#FFFFFF;" version="1.1" viewBox="0 0 1656 1558" width="1656px" zoomAndPan="magnify"><defs/><g><text fill="#000000" font-family="Verdana" font-size="22" font-weight="bold" lengthAdjust="spacing" textLength="699" x="477.25" y="37.1182">Sequence Diagram &#8212; Full Parser Cycle with Notification</text><rect fill="#FFFFFF" height="29.7993" style="stroke:#000000;stroke-width:1.0;" width="10" x="160" y="500.5591"/><rect fill="#FFFFFF" height="59.5986" style="stroke:#000000;stroke-width:1.0;" width="10" x="1526.5" y="1177.3447"/><rect fill="#FFFFFF" height="976.7788" style="stroke:#000000;stroke-width:1.0;" width="1541.5" x="98" y="311.9639"/><rect fill="#FFFFFF" height="258.1938" style="stroke:#000000;stroke-width:1.0;" width="1417.5" x="212" y="1023.5488"/><rect fill="#FFFFFF" height="226.3945" style="stroke:#000000;stroke-width:1.0;" width="1397.5" x="222" y="1048.3481"/><line style="stroke:#000000;stroke-width:1.0;" x1="54" x2="54" y1="147.7666" y2="1459.7393"/><line style="stroke:#000000;stroke-width:1.0;" x1="165" x2="165" y1="147.7666" y2="1459.7393"/><line style="stroke:#000000;stroke-width:1.0;" x1="285" x2="285" y1="147.7666" y2="1459.7393"/><line style="stroke:#000000;stroke-width:1.0;" x1="413" x2="413" y1="147.7666" y2="1459.7393"/><line style="stroke:#000000;stroke-width:1.0;" x1="582.5" x2="582.5" y1="147.7666" y2="1459.7393"/><line style="stroke:#000000;stroke-width:1.0;" x1="710.5" x2="710.5" y1="147.7666" y2="1459.7393"/><line style="stroke:#000000;stroke-width:1.0;" x1="869.5" x2="869.5" y1="147.7666" y2="1459.7393"/><line style="stroke:#000000;stroke-width:1.0;" x1="993.5" x2="993.5" y1="147.7666" y2="1459.7393"/><line style="stroke:#000000;stroke-width:1.0;" x1="1116.5" x2="1116.5" y1="147.7666" y2="1459.7393"/><line style="stroke:#000000;stroke-width:1.0;" x1="1241.5" x2="1241.5" y1="147.7666" y2="1459.7393"/><line style="stroke:#000000;stroke-width:1.0;" x1="1531.5" x2="1531.5" y1="147.7666" y2="1459.7393"/><text fill="#000000" font-family="Verdana" font-size="14" lengthAdjust="spacing" textLength="45" x="28.5" y="127.8125">Config</text><text fill="#000000" font-family="Verdana" font-size="14" lengthAdjust="spacing" textLength="82" x="10" y="144.8271">(sites.yaml)</text><ellipse cx="54" cy="61.7373" fill="#FFFFFF" rx="8" ry="8" style="stroke:#000000;stroke-width:1.0;"/><path d="M54,69.7373 L54,96.7373 M41,77.7373 L67,77.7373 M54,96.7373 L41,111.7373 M54,96.7373 L67,111.7373 " fill="none" style="stroke:#000000;stroke-width:1.0;"/><text fill="#000000" font-family="Verdana" font-size="14" lengthAdjust="spacing" textLength="45" x="28.5" y="1472.8145">Config</text><text fill="#000000" font-family="Verdana" font-size="14" lengthAdjust="spacing" textLength="82" x="10" y="1489.8291">(sites.yaml)</text><ellipse cx="54" cy="1501.7686" fill="#FFFFFF" rx="8" ry="8" style="stroke:#000000;stroke-width:1.0;"/><path d="M54,1509.7686 L54,1536.7686 M41,1517.7686 L67,1517.7686 M54,1536.7686 L41,1551.7686 M54,1536.7686 L67,1551.7686 " fill="none" style="stroke:#000000;stroke-width:1.0;"/><text fill="#000000" font-family="Verdana" font-size="14" lengthAdjust="spacing" textLength="108" x="108" y="144.8271">Target Website</text><ellipse cx="165" cy="78.752" fill="#FFFFFF" rx="8" ry="8" style="stroke:#000000;stroke-width:1.0;"/><path d="M165,86.752 L165,113.752 M152,94.752 L178,94.752 M165,113.752 L152,128.752 M165,113.752 L178,128.752 " fill="none" style="stroke:#000000;stroke-width:1.0;"/><text fill="#000000" font-family="Verdana" font-size="14" lengthAdjust="spacing" textLength="108" x="108" y="1472.8145">Target Website</text><ellipse cx="165" cy="1484.7539" fill="#FFFFFF" rx="8" ry="8" style="stroke:#000000;stroke-width:1.0;"/><path d="M165,1492.7539 L165,1519.7539 M152,1500.7539 L178,1500.7539 M165,1519.7539 L152,1534.7539 M165,1519.7539 L178,1534.7539 " fill="none" style="stroke:#000000;stroke-width:1.0;"/><text fill="#000000" font-family="Verdana" font-size="14" lengthAdjust="spacing" textLength="101" x="232" y="144.8271">Telegram User</text><ellipse cx="285.5" cy="78.752" fill="#FFFFFF" rx="8" ry="8" style="stroke:#000000;stroke-width:1.0;"/><path d="M285.5,86.752 L285.5,113.752 M272.5,94.752 L298.5,94.752 M285.5,113.752 L272.5,128.752 M285.5,113.752 L298.5,128.752 " fill="none" style="stroke:#000000;stroke-width:1.0;"/><text fill="#000000" font-family="Verdana" font-size="14" lengthAdjust="spacing" textLength="101" x="232" y="1472.8145">Telegram User</text><ellipse cx="285.5" cy="1484.7539" fill="#FFFFFF" rx="8" ry="8" style="stroke:#000000;stroke-width:1.0;"/><path d="M285.5,1492.7539 L285.5,1519.7539 M272.5,1500.7539 L298.5,1500.7539 M285.5,1519.7539 L272.5,1534.7539 M285.5,1519.7539 L298.5,1534.7539 " fill="none" style="stroke:#000000;stroke-width:1.0;"/><rect fill="#FFFFFF" height="31.0146" rx="2.5" ry="2.5" style="stroke:#000000;stroke-width:1.0;" width="109" x="359" y="115.752"/><text fill="#000000" font-family="Verdana" font-size="14" lengthAdjust="spacing" textLength="95" x="366" y="136.8271">ParserRunner</text><rect fill="#FFFFFF" height="31.0146" rx="2.5" ry="2.5" style="stroke:#000000;stroke-width:1.0;" width="109" x="359" y="1458.7393"/><text fill="#000000" font-family="Verdana" font-size="14" lengthAdjust="spacing" textLength="95" x="366" y="1479.8145">ParserRunner</text><rect fill="#FFFFFF" height="31.0146" rx="2.5" ry="2.5" style="stroke:#000000;stroke-width:1.0;" width="110" x="527.5" y="115.752"/><text fill="#000000" font-family="Verdana" font-size="14" lengthAdjust="spacing" textLength="96" x="534.5" y="136.8271">ParserFactory</text><rect fill="#FFFFFF" height="31.0146" rx="2.5" ry="2.5" style="stroke:#000000;stroke-width:1.0;" width="110" x="527.5" y="1458.7393"/><text fill="#000000" font-family="Verdana" font-size="14" lengthAdjust="spacing" textLength="96" x="534.5" y="1479.8145">ParserFactory</text><rect fill="#FFFFFF" height="31.0146" rx="2.5" ry="2.5" style="stroke:#000000;stroke-width:1.0;" width="86" x="667.5" y="115.752"/><text fill="#000000" font-family="Verdana" font-size="14" lengthAdjust="spacing" textLength="72" x="674.5" y="136.8271">KHLParser</text><rect fill="#FFFFFF" height="31.0146" rx="2.5" ry="2.5" style="stroke:#000000;stroke-width:1.0;" width="86" x="667.5" y="1458.7393"/><text fill="#000000" font-family="Verdana" font-size="14" lengthAdjust="spacing" textLength="72" x="674.5" y="1479.8145">KHLParser</text><rect fill="#FFFFFF" height="31.0146" rx="2.5" ry="2.5" style="stroke:#000000;stroke-width:1.0;" width="108" x="815.5" y="115.752"/><text fill="#000000" font-family="Verdana" font-size="14" lengthAdjust="spacing" textLength="94" x="822.5" y="136.8271">ProxyRotator</text><rect fill="#FFFFFF" height="31.0146" rx="2.5" ry="2.5" style="stroke:#000000;stroke-width:1.0;" width="108" x="815.5" y="1458.7393"/><text fill="#000000" font-family="Verdana" font-size="14" lengthAdjust="spacing" textLength="94" x="822.5" y="1479.8145">ProxyRotator</text><rect fill="#FFFFFF" height="31.0146" rx="2.5" ry="2.5" style="stroke:#000000;stroke-width:1.0;" width="80" x="953.5" y="115.752"/><text fill="#000000" font-family="Verdana" font-size="14" lengthAdjust="spacing" textLength="66" x="960.5" y="136.8271">Database</text><rect fill="#FFFFFF" height="31.0146" rx="2.5" ry="2.5" style="stroke:#000000;stroke-width:1.0;" width="80" x="953.5" y="1458.7393"/><text fill="#000000" font-family="Verdana" font-size="14" lengthAdjust="spacing" textLength="66" x="960.5" y="1479.8145">Database</text><rect fill="#FFFFFF" height="31.0146" rx="2.5" ry="2.5" style="stroke:#000000;stroke-width:1.0;" width="107" x="1063.5" y="115.752"/><text fill="#000000" font-family="Verdana" font-size="14" lengthAdjust="spacing" textLength="93" x="1070.5" y="136.8271">TeamMatcher</text><rect fill="#FFFFFF" height="31.0146" rx="2.5" ry="2.5" style="stroke:#000000;stroke-width:1.0;" width="107" x="1063.5" y="1458.7393"/><text fill="#000000" font-family="Verdana" font-size="14" lengthAdjust="spacing" textLength="93" x="1070.5" y="1479.8145">TeamMatcher</text><rect fill="#FFFFFF" height="31.0146" rx="2.5" ry="2.5" style="stroke:#000000;stroke-width:1.0;" width="64" x="1209.5" y="115.752"/><text fill="#000000" font-family="Verdana" font-size="14" lengthAdjust="spacing" textLength="50" x="1216.5" y="136.8271">Notifier</text><rect fill="#FFFFFF" height="31.0146" rx="2.5" ry="2.5" style="stroke:#000000;stroke-width:1.0;" width="64" x="1209.5" y="1458.7393"/><text fill="#000000" font-family="Verdana" font-size="14" lengthAdjust="spacing" textLength="50" x="1216.5" y="1479.8145">Notifier</text><rect fill="#FFFFFF" height="31.0146" rx="2.5" ry="2.5" style="stroke:#000000;stroke-width:1.0;" width="136" x="1463.5" y="115.752"/><text fill="#000000" font-family="Verdana" font-size="14" lengthAdjust="spacing" textLength="122" x="1470.5" y="136.8271">Telegram Bot API</text><rect fill="#FFFFFF" height="31.0146" rx="2.5" ry="2.5" style="stroke:#000000;stroke-width:1.0;" width="136" x="1463.5" y="1458.7393"/><text fill="#000000" font-family="Verdana" font-size="14" lengthAdjust="spacing" textLength="122" x="1470.5" y="1479.8145">Telegram Bot API</text><rect fill="#FFFFFF" height="29.7993" style="stroke:#000000;stroke-width:1.0;" width="10" x="160" y="500.5591"/><rect fill="#FFFFFF" height="59.5986" style="stroke:#000000;stroke-width:1.0;" width="10" x="1526.5" y="1177.3447"/><rect fill="#FFFFFF" height="3" style="stroke:#FFFFFF;stroke-width:1.0;" width="1644.5" x="5" y="178.6663"/><line style="stroke:#000000;stroke-width:0.5;" x1="5" x2="1649.5" y1="178.6663" y2="178.6663"/><line style="stroke:#000000;stroke-width:0.5;" x1="5" x2="1649.5" y1="181.6663" y2="181.6663"/><rect fill="#FFFFFF" height="23.7993" style="stroke:#000000;stroke-width:1.0;" width="125" x="764.75" y="167.7666"/><text fill="#000000" font-family="Verdana" font-size="13" font-weight="bold" lengthAdjust="spacing" textLength="107" x="770.75" y="184.8364">Config Loading</text><polygon fill="#000000" points="65,219.3652,55,223.3652,65,227.3652,61,223.3652" style="stroke:#000000;stroke-width:1.0;"/><line style="stroke:#000000;stroke-width:1.0;" x1="59" x2="412.5" y1="223.3652" y2="223.3652"/><text fill="#000000" font-family="Verdana" font-size="13" lengthAdjust="spacing" textLength="110" x="71" y="218.6357">read site configs</text><polygon fill="#000000" points="401.5,249.1646,411.5,253.1646,401.5,257.1646,405.5,253.1646" style="stroke:#000000;stroke-width:1.0;"/><line style="stroke:#000000;stroke-width:1.0;stroke-dasharray:2.0,2.0;" x1="54" x2="407.5" y1="253.1646" y2="253.1646"/><text fill="#000000" font-family="Verdana" font-size="13" lengthAdjust="spacing" textLength="150" x="61" y="248.4351">site list + parser types</text><rect fill="#FFFFFF" height="3" style="stroke:#FFFFFF;stroke-width:1.0;" width="1644.5" x="5" y="282.0642"/><line style="stroke:#000000;stroke-width:0.5;" x1="5" x2="1649.5" y1="282.0642" y2="282.0642"/><line style="stroke:#000000;stroke-width:0.5;" x1="5" x2="1649.5" y1="285.0642" y2="285.0642"/><rect fill="#FFFFFF" height="23.7993" style="stroke:#000000;stroke-width:1.0;" width="233" x="710.75" y="271.1646"/><text fill="#000000" font-family="Verdana" font-size="13" font-weight="bold" lengthAdjust="spacing" textLength="215" x="716.75" y="288.2344">Scraping Cycle (for each site)</text><path d="M98,311.9639 L174,311.9639 L174,319.7632 L164,329.7632 L98,329.7632 L98,311.9639 " fill="#FFFFFF" style="stroke:#000000;stroke-width:1.0;"/><rect fill="none" height="976.7788" style="stroke:#000000;stroke-width:1.0;" width="1541.5" x="98" y="311.9639"/><text fill="#000000" font-family="Verdana" font-size="13" font-weight="bold" lengthAdjust="spacing" textLength="31" x="113" y="326.0337">loop</text><text fill="#000000" font-family="Verdana" font-size="11" font-weight="bold" lengthAdjust="spacing" textLength="168" x="189" y="325.0229">[for each configured site]</text><polygon fill="#000000" points="570.5,347.5625,580.5,351.5625,570.5,355.5625,574.5,351.5625" style="stroke:#000000;stroke-width:1.0;"/><line style="stroke:#000000;stroke-width:1.0;" x1="413.5" x2="576.5" y1="351.5625" y2="351.5625"/><text fill="#000000" font-family="Verdana" font-size="13" lengthAdjust="spacing" textLength="145" x="420.5" y="346.833">get_parser(site_type)</text><polygon fill="#000000" points="424.5,377.3618,414.5,381.3618,424.5,385.3618,420.5,381.3618" style="stroke:#000000;stroke-width:1.0;"/><line style="stroke:#000000;stroke-width:1.0;stroke-dasharray:2.0,2.0;" x1="418.5" x2="581.5" y1="381.3618" y2="381.3618"/><text fill="#000000" font-family="Verdana" font-size="13" lengthAdjust="spacing" textLength="126" x="430.5" y="376.6323">KHLParser instance</text><polygon fill="#000000" points="698.5,407.1611,708.5,411.1611,698.5,415.1611,702.5,411.1611" style="stroke:#000000;stroke-width:1.0;"/><line style="stroke:#000000;stroke-width:1.0;" x1="413.5" x2="704.5" y1="411.1611" y2="411.1611"/><text fill="#000000" font-family="Verdana" font-size="13" lengthAdjust="spacing" textLength="47" x="420.5" y="406.4316">fetch()</text><polygon fill="#000000" points="857.5,436.9604,867.5,440.9604,857.5,444.9604,861.5,440.9604" style="stroke:#000000;stroke-width:1.0;"/><line style="stroke:#000000;stroke-width:1.0;" x1="710.5" x2="863.5" y1="440.9604" y2="440.9604"/><text fill="#000000" font-family="Verdana" font-size="13" lengthAdjust="spacing" textLength="78" x="717.5" y="436.231">get_proxy()</text><polygon fill="#000000" points="721.5,466.7598,711.5,470.7598,721.5,474.7598,717.5,470.7598" style="stroke:#000000;stroke-width:1.0;"/><line style="stroke:#000000;stroke-width:1.0;stroke-dasharray:2.0,2.0;" x1="715.5" x2="868.5" y1="470.7598" y2="470.7598"/><text fill="#000000" font-family="Verdana" font-size="13" lengthAdjust="spacing" textLength="92" x="727.5" y="466.0303">proxy address</text><polygon fill="#000000" points="181,496.5591,171,500.5591,181,504.5591,177,500.5591" style="stroke:#000000;stroke-width:1.0;"/><line style="stroke:#000000;stroke-width:1.0;" x1="175" x2="709.5" y1="500.5591" y2="500.5591"/><text fill="#000000" font-family="Verdana" font-size="13" lengthAdjust="spacing" textLength="151" x="187" y="495.8296">HTTP GET (Playwright)</text><polygon fill="#000000" points="698.5,526.3584,708.5,530.3584,698.5,534.3584,702.5,530.3584" style="stroke:#000000;stroke-width:1.0;"/><line style="stroke:#000000;stroke-width:1.0;stroke-dasharray:2.0,2.0;" x1="165" x2="704.5" y1="530.3584" y2="530.3584"/><text fill="#000000" font-family="Verdana" font-size="13" lengthAdjust="spacing" textLength="73" x="172" y="525.6289">HTML page</text><line style="stroke:#000000;stroke-width:1.0;" x1="710.5" x2="752.5" y1="560.1577" y2="560.1577"/><line style="stroke:#000000;stroke-width:1.0;" x1="752.5" x2="752.5" y1="560.1577" y2="573.1577"/><line style="stroke:#000000;stroke-width:1.0;" x1="711.5" x2="752.5" y1="573.1577" y2="573.1577"/><polygon fill="#000000" points="721.5,569.1577,711.5,573.1577,721.5,577.1577,717.5,573.1577" style="stroke:#000000;stroke-width:1.0;"/><text fill="#000000" font-family="Verdana" font-size="13" lengthAdjust="spacing" textLength="145" x="717.5" y="555.4282">parse HTML &#8594; events</text><polygon fill="#000000" points="424.5,598.957,414.5,602.957,424.5,606.957,420.5,602.957" style="stroke:#000000;stroke-width:1.0;"/><line style="stroke:#000000;stroke-width:1.0;stroke-dasharray:2.0,2.0;" x1="418.5" x2="709.5" y1="602.957" y2="602.957"/><text fill="#000000" font-family="Verdana" font-size="13" lengthAdjust="spacing" textLength="110" x="430.5" y="598.2275">list[MatchEvent]</text><rect fill="#FFFFFF" height="3" style="stroke:#FFFFFF;stroke-width:1.0;" width="1644.5" x="5" y="631.8567"/><line style="stroke:#000000;stroke-width:0.5;" x1="5" x2="1649.5" y1="631.8567" y2="631.8567"/><line style="stroke:#000000;stroke-width:0.5;" x1="5" x2="1649.5" y1="634.8567" y2="634.8567"/><rect fill="#FFFFFF" height="23.7993" style="stroke:#000000;stroke-width:1.0;" width="251" x="701.75" y="620.957"/><text fill="#000000" font-family="Verdana" font-size="13" font-weight="bold" lengthAdjust="spacing" textLength="233" x="707.75" y="638.0269">Change Detection &amp; Persistence</text><polygon fill="#000000" points="981.5,672.5557,991.5,676.5557,981.5,680.5557,985.5,676.5557" style="stroke:#000000;stroke-width:1.0;"/><line style="stroke:#000000;stroke-width:1.0;" x1="413.5" x2="987.5" y1="676.5557" y2="676.5557"/><text fill="#000000" font-family="Verdana" font-size="13" lengthAdjust="spacing" textLength="180" x="420.5" y="671.8262">get_existing_matches(site)</text><polygon fill="#000000" points="424.5,702.355,414.5,706.355,424.5,710.355,420.5,706.355" style="stroke:#000000;stroke-width:1.0;"/><line style="stroke:#000000;stroke-width:1.0;stroke-dasharray:2.0,2.0;" x1="418.5" x2="992.5" y1="706.355" y2="706.355"/><text fill="#000000" font-family="Verdana" font-size="13" lengthAdjust="spacing" textLength="105" x="430.5" y="701.6255">previous events</text><polygon fill="#000000" points="981.5,743.054,991.5,747.054,981.5,751.054,985.5,747.054" style="stroke:#000000;stroke-width:1.0;"/><line style="stroke:#000000;stroke-width:1.0;" x1="413.5" x2="987.5" y1="747.054" y2="747.054"/><text fill="#000000" font-family="Verdana" font-size="13" lengthAdjust="spacing" textLength="187" x="420.5" y="742.3245">save_new_matches(events)</text><path d="M998,719.355 L998,760.355 L1201,760.355 L1201,729.355 L1191,719.355 L998,719.355 " fill="#FEF9E7" style="stroke:#000000;stroke-width:1.0;"/><path d="M1191,719.355 L1191,729.355 L1201,729.355 L1191,719.355 " fill="#FEF9E7" style="stroke:#000000;stroke-width:1.0;"/><text fill="#000000" font-family="Verdana" font-size="13" lengthAdjust="spacing" textLength="160" x="1004" y="737.4248">Detects: new, sold-out,</text><text fill="#000000" font-family="Verdana" font-size="13" lengthAdjust="spacing" textLength="182" x="1004" y="753.2241">price-changed, re-available</text><rect fill="#FFFFFF" height="3" style="stroke:#FFFFFF;stroke-width:1.0;" width="1644.5" x="5" y="786.8533"/><line style="stroke:#000000;stroke-width:0.5;" x1="5" x2="1649.5" y1="786.8533" y2="786.8533"/><line style="stroke:#000000;stroke-width:0.5;" x1="5" x2="1649.5" y1="789.8533" y2="789.8533"/><rect fill="#FFFFFF" height="23.7993" style="stroke:#000000;stroke-width:1.0;" width="137" x="758.75" y="775.9536"/><text fill="#000000" font-family="Verdana" font-size="13" font-weight="bold" lengthAdjust="spacing" textLength="119" x="764.75" y="793.0234">Team Extraction</text><polygon fill="#000000" points="1105,827.5522,1115,831.5522,1105,835.5522,1109,831.5522" style="stroke:#000000;stroke-width:1.0;"/><line style="stroke:#000000;stroke-width:1.0;" x1="413.5" x2="1111" y1="831.5522" y2="831.5522"/><text fill="#000000" font-family="Verdana" font-size="13" lengthAdjust="spacing" textLength="177" x="420.5" y="826.8228">extract_teams(event.title)</text><polygon fill="#000000" points="424.5,857.3516,414.5,861.3516,424.5,865.3516,420.5,861.3516" style="stroke:#000000;stroke-width:1.0;"/><line style="stroke:#000000;stroke-width:1.0;stroke-dasharray:2.0,2.0;" x1="418.5" x2="1116" y1="861.3516" y2="861.3516"/><text fill="#000000" font-family="Verdana" font-size="13" lengthAdjust="spacing" textLength="67" x="430.5" y="856.6221">list[Team]</text><rect fill="#FFFFFF" height="3" style="stroke:#FFFFFF;stroke-width:1.0;" width="1644.5" x="5" y="890.2512"/><line style="stroke:#000000;stroke-width:0.5;" x1="5" x2="1649.5" y1="890.2512" y2="890.2512"/><line style="stroke:#000000;stroke-width:0.5;" x1="5" x2="1649.5" y1="893.2512" y2="893.2512"/><rect fill="#FFFFFF" height="23.7993" style="stroke:#000000;stroke-width:1.0;" width="151" x="751.75" y="879.3516"/><text fill="#000000" font-family="Verdana" font-size="13" font-weight="bold" lengthAdjust="spacing" textLength="133" x="757.75" y="896.4214">Subscriber Lookup</text><polygon fill="#000000" points="981.5,930.9502,991.5,934.9502,981.5,938.9502,985.5,934.9502" style="stroke:#000000;stroke-width:1.0;"/><line style="stroke:#000000;stroke-width:1.0;" x1="413.5" x2="987.5" y1="934.9502" y2="934.9502"/><text fill="#000000" font-family="Verdana" font-size="13" lengthAdjust="spacing" textLength="199" x="420.5" y="930.2207">get_subscribers(team, venue)</text><polygon fill="#000000" points="424.5,960.7495,414.5,964.7495,424.5,968.7495,420.5,964.7495" style="stroke:#000000;stroke-width:1.0;"/><line style="stroke:#000000;stroke-width:1.0;stroke-dasharray:2.0,2.0;" x1="418.5" x2="992.5" y1="964.7495" y2="964.7495"/><text fill="#000000" font-family="Verdana" font-size="13" lengthAdjust="spacing" textLength="100" x="430.5" y="960.02">list[Subscriber]</text><rect fill="#FFFFFF" height="3" style="stroke:#FFFFFF;stroke-width:1.0;" width="1644.5" x="5" y="993.6492"/><line style="stroke:#000000;stroke-width:0.5;" x1="5" x2="1649.5" y1="993.6492" y2="993.6492"/><line style="stroke:#000000;stroke-width:0.5;" x1="5" x2="1649.5" y1="996.6492" y2="996.6492"/><rect fill="#FFFFFF" height="23.7993" style="stroke:#000000;stroke-width:1.0;" width="168" x="743.25" y="982.7495"/><text fill="#000000" font-family="Verdana" font-size="13" font-weight="bold" lengthAdjust="spacing" textLength="150" x="749.25" y="999.8193">Notification Dispatch</text><path d="M212,1023.5488 L276,1023.5488 L276,1031.3481 L266,1041.3481 L212,1041.3481 L212,1023.5488 " fill="#FFFFFF" style="stroke:#000000;stroke-width:1.0;"/><rect fill="none" height="258.1938" style="stroke:#000000;stroke-width:1.0;" width="1417.5" x="212" y="1023.5488"/><text fill="#000000" font-family="Verdana" font-size="13" font-weight="bold" lengthAdjust="spacing" textLength="19" x="227" y="1037.6187">alt</text><text fill="#000000" font-family="Verdana" font-size="11" font-weight="bold" lengthAdjust="spacing" textLength="201" x="291" y="1036.6079">[has subscribers and changes]</text><path d="M222,1048.3481 L298,1048.3481 L298,1056.1475 L288,1066.1475 L222,1066.1475 L222,1048.3481 " fill="#FFFFFF" style="stroke:#000000;stroke-width:1.0;"/><rect fill="none" height="226.3945" style="stroke:#000000;stroke-width:1.0;" width="1397.5" x="222" y="1048.3481"/><text fill="#000000" font-family="Verdana" font-size="13" font-weight="bold" lengthAdjust="spacing" textLength="31" x="237" y="1062.418">loop</text><text fill="#000000" font-family="Verdana" font-size="11" font-weight="bold" lengthAdjust="spacing" textLength="139" x="313" y="1061.4072">[for each subscriber]</text><polygon fill="#000000" points="1229.5,1083.9468,1239.5,1087.9468,1229.5,1091.9468,1233.5,1087.9468" style="stroke:#000000;stroke-width:1.0;"/><line style="stroke:#000000;stroke-width:1.0;" x1="413.5" x2="1235.5" y1="1087.9468" y2="1087.9468"/><text fill="#000000" font-family="Verdana" font-size="13" lengthAdjust="spacing" textLength="243" x="420.5" y="1083.2173">notify(chat_id, event, change_type)</text><polygon fill="#000000" points="1004.5,1113.7461,994.5,1117.7461,1004.5,1121.7461,1000.5,1117.7461" style="stroke:#000000;stroke-width:1.0;"/><line style="stroke:#000000;stroke-width:1.0;" x1="998.5" x2="1240.5" y1="1117.7461" y2="1117.7461"/><text fill="#000000" font-family="Verdana" font-size="13" lengthAdjust="spacing" textLength="224" x="1010.5" y="1113.0166">check_notified(event_id, chat_id)</text><polygon fill="#000000" points="1229.5,1143.5454,1239.5,1147.5454,1229.5,1151.5454,1233.5,1147.5454" style="stroke:#000000;stroke-width:1.0;"/><line style="stroke:#000000;stroke-width:1.0;stroke-dasharray:2.0,2.0;" x1="993.5" x2="1235.5" y1="1147.5454" y2="1147.5454"/><text fill="#000000" font-family="Verdana" font-size="13" lengthAdjust="spacing" textLength="103" x="1000.5" y="1142.8159">not notified yet</text><polygon fill="#000000" points="1514.5,1173.3447,1524.5,1177.3447,1514.5,1181.3447,1518.5,1177.3447" style="stroke:#000000;stroke-width:1.0;"/><line style="stroke:#000000;stroke-width:1.0;" x1="1241.5" x2="1520.5" y1="1177.3447" y2="1177.3447"/><text fill="#000000" font-family="Verdana" font-size="13" lengthAdjust="spacing" textLength="266" x="1248.5" y="1172.6152">send_message(chat_id, formatted_msg)</text><polygon fill="#000000" points="296.5,1203.144,286.5,1207.144,296.5,1211.144,292.5,1207.144" style="stroke:#000000;stroke-width:1.0;"/><line style="stroke:#000000;stroke-width:1.0;" x1="290.5" x2="1525.5" y1="1207.144" y2="1207.144"/><text fill="#000000" font-family="Verdana" font-size="13" lengthAdjust="spacing" textLength="110" x="302.5" y="1202.4146">push notification</text><polygon fill="#000000" points="1252.5,1232.9434,1242.5,1236.9434,1252.5,1240.9434,1248.5,1236.9434" style="stroke:#000000;stroke-width:1.0;"/><line style="stroke:#000000;stroke-width:1.0;stroke-dasharray:2.0,2.0;" x1="1246.5" x2="1530.5" y1="1236.9434" y2="1236.9434"/><text fill="#000000" font-family="Verdana" font-size="13" lengthAdjust="spacing" textLength="53" x="1258.5" y="1232.2139">success</text><polygon fill="#000000" points="1004.5,1262.7427,994.5,1266.7427,1004.5,1270.7427,1000.5,1266.7427" style="stroke:#000000;stroke-width:1.0;"/><line style="stroke:#000000;stroke-width:1.0;" x1="998.5" x2="1240.5" y1="1266.7427" y2="1266.7427"/><text fill="#000000" font-family="Verdana" font-size="13" lengthAdjust="spacing" textLength="216" x="1010.5" y="1262.0132">mark_notified(event_id, chat_id)</text><rect fill="#FFFFFF" height="3" style="stroke:#FFFFFF;stroke-width:1.0;" width="1644.5" x="5" y="1316.6423"/><line style="stroke:#000000;stroke-width:0.5;" x1="5" x2="1649.5" y1="1316.6423" y2="1316.6423"/><line style="stroke:#000000;stroke-width:0.5;" x1="5" x2="1649.5" y1="1319.6423" y2="1319.6423"/><rect fill="#FFFFFF" height="23.7993" style="stroke:#000000;stroke-width:1.0;" width="132" x="761.25" y="1305.7427"/><text fill="#000000" font-family="Verdana" font-size="13" font-weight="bold" lengthAdjust="spacing" textLength="114" x="767.25" y="1322.8125">Cycle Complete</text><line style="stroke:#000000;stroke-width:1.0;" x1="413.5" x2="455.5" y1="1361.3413" y2="1361.3413"/><line style="stroke:#000000;stroke-width:1.0;" x1="455.5" x2="455.5" y1="1361.3413" y2="1374.3413"/><line style="stroke:#000000;stroke-width:1.0;" x1="414.5" x2="455.5" y1="1374.3413" y2="1374.3413"/><polygon fill="#000000" points="424.5,1370.3413,414.5,1374.3413,424.5,1378.3413,420.5,1374.3413" style="stroke:#000000;stroke-width:1.0;"/><text fill="#000000" font-family="Verdana" font-size="13" lengthAdjust="spacing" textLength="95" x="420.5" y="1356.6118">sleep(interval)</text><path d="M304,1387.3413 L304,1444.3413 L523,1444.3413 L523,1397.3413 L513,1387.3413 L304,1387.3413 " fill="#F5EEF8" style="stroke:#000000;stroke-width:1.0;"/><path d="M513,1387.3413 L513,1397.3413 L523,1397.3413 L513,1387.3413 " fill="#F5EEF8" style="stroke:#000000;stroke-width:1.0;"/><text fill="#000000" font-family="Verdana" font-size="13" lengthAdjust="spacing" textLength="163" x="310" y="1405.4111">The entire cycle repeats</text><text fill="#000000" font-family="Verdana" font-size="13" lengthAdjust="spacing" textLength="198" x="310" y="1421.2104">every N minutes (configurable</text><text fill="#000000" font-family="Verdana" font-size="13" lengthAdjust="spacing" textLength="88" x="310" y="1437.0098">in sites.yaml)</text><!--SRC=[XLN1Rjiu4BthAsPJe71GkxUYkmQoG3UrDukcXT6uw65R66DfB16LI2r9EV5jJ_s0eb_OB-bmICbMaiK6241p7j-RUUICVl4LDGHjZKfdcLU-9hYXVphIES5hXQN51dxy-nsMNLt32gqZ2vU7d66tobVmpdYrKpbwPVWyvjvOEBiqUgVAJthYb2Vt_81DVNu6w22NG0zReot9mqVQ1fm0mc88KqqY_u4r9Thn8ijQj5xbgaNjuInczBxJEc6iB1y3BONt8AXTN8zXRwwk8r8WhIpl4LbpTtXlFFBX20eROynhzBX55-ifjkFWch1vYpwlaaWJrsDGz3GXTFfndoTvyuVny6hrbq1zcMKN5n3TXsk3XT8bN5naqHEO_Puk0EPW2GjnEssvB8LcZ4huUGJKodbublm0VsZ9YSvDRh4D2l4vJ7PyQOHv9QVEWsvjJ0l3TXJeB4NX3E2OLxeFbkGNiObIydesGU-SiJrYbDzmOw2qyyXlDXlHffpdi2FsUH9uqbO8Xhlh5SCwncLtTdeuRc5HM78k6t68GNEuMgzNyETY3PDLZOTRgyhA1pBEMUsH8QbWWO-uhzPlh_bN6Q85ZV7ZR8TimYAU-_7r6z2Uj7Sdq5D_mjNzBUzj4M2V0sLu8HNgajkRFEMXSU4fhCWw1alRyysTcbXiaqbqnmY-y4ryjKukA9J9Y95iQsclJEVwv1xIETpJHjFjG1MHWOmVF84u24-MY-LlYvUy2IbPDmS-DGLdwc9cEZ-LM6jLJhDSgYgc_BPdk4TLuxOEjf8kX3GL7reG5dVUOgpzNhMf8pb7YfYDvmCfmUSo84EMFUoXtO6_D_gcsxhSgYr7hutvqhN_wQqRa6uI1AV0UjsZxehAaRdNEft4FBbT6pACUbXxgC9qFOe0iYlHCISUZdlrY9JWQShzGE9CP7cOC8tVA3PUF9ecsg5pmzzmgA-PpSk_RD9s4TqLZaJM7qp5ZqNxdmKSo3-YuCE4StplcuOxbflhc29No5VdYKEkx4M6jkC96dUOWNcwr76Tgn9_-j0TGUFSN9VdOKQatEaXyGCZ6hJ_xmEN4Xzo5lvboClClJHDMtDZZ8VySNpNHEr4QKzsZ_LvbablcJq74-R9yiLYiVoLoTSLiO1Nbhy8mcsf9PJ9madnu7q7ZT8TVyzXqa_or61Amyc7FXlwxIS0]--></g></svg>